<svg width="17" height="19" viewBox="0 0 17 19" fill="none" xmlns="http://www.w3.org/2000/svg">
<g id="Group">
<path id="Vector" fill-rule="evenodd" clip-rule="evenodd" d="M11.9868 2.7999C8.316 2.7999 5.4 5.4555 5.4 9.3999C5.4 13.4643 8.4324 16.5999 11.9868 16.5999C12.8784 16.5999 13.728 16.4067 14.5044 16.0551C14.6484 15.9862 14.8047 15.9467 14.9642 15.9389C15.1237 15.9312 15.2831 15.9554 15.4331 16.01C15.5831 16.0646 15.7207 16.1487 15.8379 16.2572C15.955 16.3657 16.0493 16.4964 16.1152 16.6418C16.1812 16.7872 16.2175 16.9443 16.2219 17.1039C16.2264 17.2635 16.199 17.4224 16.1413 17.5713C16.0836 17.7201 15.9967 17.856 15.8859 17.9709C15.775 18.0857 15.6423 18.1773 15.4956 18.2403C14.3937 18.7412 13.1972 19.0002 11.9868 18.9999C6.9396 18.9999 3 14.6139 3 9.3999C3 4.0659 7.056 0.399902 11.9868 0.399902C13.4712 0.399902 14.9004 0.871502 16.2756 1.8087C16.4105 1.89534 16.5267 2.00815 16.6173 2.14047C16.708 2.27278 16.7711 2.42191 16.8031 2.57905C16.8351 2.73618 16.8353 2.89814 16.8036 3.05535C16.772 3.21255 16.7091 3.36182 16.6188 3.49433C16.5285 3.62684 16.4125 3.7399 16.2778 3.82683C16.143 3.91377 15.9922 3.97281 15.8343 4.00048C15.6763 4.02815 15.5144 4.02387 15.3581 3.98791C15.2019 3.95195 15.0544 3.88503 14.9244 3.7911C13.896 3.0903 12.9288 2.7999 11.9868 2.7999Z" fill="#E9E9E9"/>
<path id="Vector_2" fill-rule="evenodd" clip-rule="evenodd" d="M0.600098 7.5999C0.600098 7.28164 0.726526 6.97642 0.951569 6.75137C1.17661 6.52633 1.48184 6.3999 1.8001 6.3999H12.6001C12.9184 6.3999 13.2236 6.52633 13.4486 6.75137C13.6737 6.97642 13.8001 7.28164 13.8001 7.5999C13.8001 7.91816 13.6737 8.22339 13.4486 8.44843C13.2236 8.67347 12.9184 8.7999 12.6001 8.7999H1.8001C1.48184 8.7999 1.17661 8.67347 0.951569 8.44843C0.726526 8.22339 0.600098 7.91816 0.600098 7.5999ZM0.600098 11.7999C0.600098 11.4816 0.726526 11.1764 0.951569 10.9514C1.17661 10.7263 1.48184 10.5999 1.8001 10.5999H11.4001C11.7184 10.5999 12.0236 10.7263 12.2486 10.9514C12.4737 11.1764 12.6001 11.4816 12.6001 11.7999C12.6001 12.1182 12.4737 12.4234 12.2486 12.6484C12.0236 12.8735 11.7184 12.9999 11.4001 12.9999H1.8001C1.48184 12.9999 1.17661 12.8735 0.951569 12.6484C0.726526 12.4234 0.600098 12.1182 0.600098 11.7999Z" fill="#E9E9E9"/>
</g>
</svg>
