<svg width="15" height="16" viewBox="0 0 15 16" fill="none" xmlns="http://www.w3.org/2000/svg">
<g id="Paypass" clip-path="url(#clip0_1291_1483)">
<g id="Vector">
<path d="M2.18466 6.02495C2.36978 6.25634 2.50861 6.53402 2.60117 6.81169C2.69373 7.08936 2.74001 7.41332 2.74001 7.73727C2.74001 8.06122 2.69373 8.38518 2.60117 8.66285C2.50861 8.94053 2.36978 9.2182 2.18466 9.4496C1.95327 9.77355 1.99954 10.2363 2.3235 10.4677C2.64745 10.6991 3.11024 10.6529 3.34164 10.3289C3.61931 9.95867 3.80443 9.58843 3.98954 9.12564C4.17466 8.66285 4.22094 8.20006 4.22094 7.73727C4.22094 7.27448 4.12838 6.81169 3.98954 6.3489C3.85071 5.93239 3.61931 5.51588 3.34164 5.14564C3.11024 4.82169 2.64745 4.77541 2.3235 5.00681C1.99954 5.2382 1.95327 5.70099 2.18466 6.02495Z" fill="#F6F6F6"/>
<path d="M4.73001 4.68285C5.28536 5.56215 5.60931 6.62657 5.60931 7.73727C5.60931 8.84797 5.28536 9.91238 4.73001 10.7917C4.49861 11.1156 4.63745 11.5784 4.9614 11.8098C5.33164 12.0412 5.74815 11.9024 5.97954 11.5784C6.67373 10.4677 7.09024 9.17192 7.09024 7.73727C7.09024 6.3489 6.67373 5.0068 5.97954 3.89611C5.74815 3.57215 5.28536 3.43332 4.9614 3.66471C4.63745 3.89611 4.49861 4.31262 4.73001 4.68285Z" fill="#F6F6F6"/>
<path d="M7.41419 3.29448C8.20093 4.59029 8.61745 6.1175 8.61745 7.73727C8.61745 9.35704 8.15466 10.8842 7.41419 12.1801C7.22907 12.5503 7.32163 12.9668 7.69186 13.1982C8.0621 13.3833 8.47861 13.2908 8.71 12.9205C9.63558 11.3933 10.1447 9.63471 10.1447 7.73727C10.1447 5.83983 9.63558 4.08122 8.71 2.55401C8.52489 2.18378 8.0621 2.09122 7.69186 2.27634C7.32163 2.50774 7.22907 2.92425 7.41419 3.29448Z" fill="#F6F6F6"/>
<path d="M10.0984 1.90611C11.0702 3.61843 11.6718 5.60843 11.6718 7.73727C11.6718 9.86611 11.1165 11.8561 10.0984 13.5684C9.91324 13.9387 10.0058 14.3552 10.376 14.5866C10.7463 14.7717 11.1628 14.6791 11.3942 14.3089C12.5049 12.3652 13.1528 10.1438 13.1528 7.73727C13.1528 5.33076 12.5049 3.10936 11.3942 1.16564C11.2091 0.79541 10.7463 0.702852 10.376 0.887968C10.0058 1.07308 9.91324 1.53588 10.0984 1.90611Z" fill="#F6F6F6"/>
</g>
</g>
<defs>
<clipPath id="clip0_1291_1483">
<rect width="14.8093" height="14.8093" fill="white" transform="translate(0.196289 0.333008)"/>
</clipPath>
</defs>
</svg>
