<svg width="247" height="38" viewBox="0 0 247 38" fill="none" xmlns="http://www.w3.org/2000/svg">
<g id="Text">
<path id="Vector" d="M225.091 0.595837C224.546 0.760105 224.255 0.901974 223.695 1.29025C223.022 1.76066 222.649 2.4252 222.507 3.39589C222.455 3.74682 222.433 9.04078 222.433 19.2852C222.44 35.9511 222.425 35.3762 222.851 36.2274C223.12 36.765 223.635 37.2354 224.344 37.6013C224.882 37.8775 224.986 37.8999 225.621 37.9223C226.211 37.9447 226.405 37.9223 226.928 37.7506C227.615 37.5341 228.324 37.1906 228.697 36.9069C229.466 36.317 229.66 35.2268 229.534 32.1729C229.436 29.903 229.474 29.6043 229.944 28.8278C230.362 28.1408 231.729 26.9611 232.11 26.9611C232.356 26.9611 232.729 27.2299 233.446 27.9243C234.521 28.9697 234.88 29.4326 236.836 32.2849C237.097 32.6657 237.628 33.4348 238.023 34.0023C238.874 35.2343 239.688 36.2199 240.465 36.9442C241.637 38.0418 242.332 38.1538 244.288 37.5565C245.154 37.2877 245.58 37.0114 246.072 36.3916C247.185 34.9804 246.647 33.2183 244.303 30.5302C242.907 28.9249 241.428 27.2075 240.95 26.6251C240.241 25.7664 238.927 23.9072 238.83 23.6234C238.785 23.489 238.725 23.3546 238.695 23.3322C238.665 23.3024 238.643 23.1605 238.643 23.0112C238.643 22.8095 238.621 22.7722 238.568 22.8543C238.531 22.9141 238.494 23.0485 238.494 23.1456C238.494 23.3098 238.486 23.3173 238.329 23.2128C238.15 23.0933 237.672 22.4362 237.672 22.3167C237.672 22.2719 239.435 20.4799 241.6 18.3295C244.124 15.8057 245.557 14.3273 245.632 14.1555C246.058 13.1251 245.206 11.3928 243.974 10.788C243.608 10.6088 243.437 10.5789 242.72 10.5491C242.227 10.5267 241.712 10.5565 241.451 10.6088C240.935 10.7133 239.883 11.251 239.352 11.6766C239.151 11.8408 237.672 13.2894 236.067 14.8947C232.692 18.2847 230.303 20.5695 229.698 20.9653C229.608 21.0325 229.504 21.0549 229.474 21.0325C229.444 21.0026 229.399 17.09 229.377 12.3411C229.347 7.00981 229.295 3.54522 229.25 3.29135C229.093 2.41774 228.884 2.02946 228.234 1.37985C227.652 0.79744 227.607 0.767574 227.025 0.618237C226.308 0.424099 225.703 0.416634 225.091 0.595837Z" fill="url(#paint0_linear_144_1349)"/>
<path id="Vector_2" d="M139.817 1.8058C139.205 1.92527 138.488 2.15674 138.235 2.32101C137.981 2.47034 137.577 2.97808 137.458 3.28422C137.256 3.79197 137.241 5.13599 137.227 19.2333C137.204 34.4655 137.212 34.7717 137.51 35.7722C137.607 36.1008 137.727 36.2725 138.167 36.7056C138.548 37.0939 138.787 37.2656 139.033 37.3403C139.429 37.4597 140.945 37.5419 142.468 37.5269C153.833 37.3925 153.945 37.3925 155.132 37.1088C156.08 36.8848 157.574 36.392 158.186 36.1008C158.865 35.7797 160.239 34.9509 160.754 34.5552C161.24 34.1818 162.203 33.1365 162.718 32.4346C163.778 30.986 164.585 28.6116 164.592 26.9241C164.592 25.6249 164.189 24.124 163.48 22.8472C162.823 21.6525 162.36 21.0029 161.74 20.3981C161.262 19.9352 161.038 19.7858 160.314 19.4498C159.164 18.9048 159.097 18.8749 159.074 18.7853C159.059 18.7405 159.276 18.5613 159.56 18.3895C160.374 17.8743 161.367 16.59 162.248 14.9324C162.823 13.8423 163.002 13.1777 163.002 12.1025C163.002 9.64593 161.994 7.10722 160.321 5.35999C159.142 4.12797 158.096 3.37383 156.782 2.81382C154.893 1.99994 154.527 1.95514 148.815 1.873C146.329 1.83567 143.372 1.79086 142.244 1.76846C141.005 1.74606 140.041 1.761 139.817 1.8058ZM152.616 9.15312C153.788 9.34726 154.482 9.75793 155.005 10.5569C155.669 11.5798 155.916 12.558 155.722 13.4615C155.58 14.1409 155.311 14.5815 154.759 15.022C153.877 15.7388 153.191 15.9927 151.466 16.254C150.368 16.4183 146.978 16.4407 145.791 16.2914C144.88 16.1719 144.656 16.0674 144.604 15.7388C144.581 15.6119 144.551 14.1484 144.537 12.4982C144.514 10.1089 144.522 9.47419 144.604 9.40699C144.708 9.31739 146.052 9.15312 147.508 9.04859C148.852 8.95152 151.742 9.01125 152.616 9.15312ZM153.743 23.2579C154.094 23.3176 154.527 23.4147 154.706 23.4819C155.52 23.7806 156.76 24.9529 157.215 25.8713C157.514 26.4537 157.551 26.9017 157.364 27.5364C157.23 27.9769 156.745 28.746 156.334 29.1343C156.028 29.4404 154.93 30.0377 154.452 30.1647C153.84 30.3215 152.735 30.4036 149.898 30.4783C146.62 30.5604 144.663 30.5156 144.604 30.3513C144.537 30.1796 144.544 23.6611 144.611 23.5939C144.925 23.2878 152.295 23.019 153.743 23.2579Z" fill="url(#paint1_linear_144_1349)"/>
<path id="Vector_3" d="M16.5361 2.05914C15.0428 2.23835 14.326 2.37275 13.5196 2.62662C10.376 3.63464 7.56852 5.21759 5.83622 6.95736C3.58872 9.2198 1.83402 11.9377 0.945474 14.5436C0.191328 16.7613 0.0419922 17.7767 0.0419922 20.7261C0.0419922 22.5032 0.0643926 23.011 0.176394 23.5635C0.69907 26.1993 1.75935 28.5215 3.53645 30.9183C4.17113 31.777 5.99303 33.6437 6.91144 34.3904C8.52427 35.6896 11.4662 37.0933 13.5942 37.5861C15.0726 37.9296 17.6711 38.0864 19.493 37.9446C22.6589 37.6907 25.1902 36.7797 28.0798 34.8533C29.0953 34.1738 29.842 33.5466 31.0143 32.3669C32.1567 31.2244 32.6345 30.5524 32.8137 29.8356C33.105 28.6857 33.217 25.6542 33.09 22.4435C33.0004 20.2408 32.9407 19.5389 32.7764 18.9192C32.7017 18.6429 32.6644 18.6056 32.3807 18.5309C31.6937 18.3442 29.618 18.2845 24.7197 18.3218C20.9789 18.3517 19.6722 18.3816 19.4183 18.4562C18.7986 18.6354 18.0146 19.6434 17.6039 20.8008C17.4844 21.1368 17.4471 21.428 17.4471 21.9955C17.4396 22.6824 17.462 22.7795 17.6711 23.235C17.8204 23.5411 18.0071 23.8024 18.1714 23.9294C18.6642 24.3027 20.2247 24.6089 22.965 24.8702C24.6152 25.027 25.0856 25.1241 25.78 25.475C26.1384 25.6542 26.2206 25.7363 26.2878 25.9678C26.3624 26.2142 26.3475 26.3188 26.1758 26.7742C25.5859 28.3497 24.3987 29.4847 22.4872 30.3135C21.2402 30.8511 19.0898 31.2916 17.6935 31.2916C16.7153 31.2916 14.7814 30.8586 13.8406 30.4255C13.3478 30.2015 12.3771 29.634 11.9889 29.3428C11.4811 28.9695 10.2715 27.7225 9.75629 27.0505C8.77814 25.7662 7.94933 24.131 7.61332 22.8168C7.20265 21.2339 7.22505 19.9496 7.70292 17.493C8.10613 15.4396 8.6064 14.357 9.77122 13.0353C10.6672 12.0198 12.1158 10.8998 13.3478 10.2801C14.5425 9.68274 16.3495 9.18246 17.8876 9.04059C19.2242 8.90619 20.7026 9.175 22.6664 9.89927C24.4659 10.5638 26.2952 11.079 26.8478 11.0865C27.4825 11.094 27.923 10.8326 28.9385 9.82461C29.5956 9.18246 29.827 8.89873 30.0212 8.49552C30.3796 7.75631 30.3721 7.3755 29.954 6.53922C29.6926 6.00908 29.506 5.7552 28.9459 5.20266C27.3033 3.5525 25.2574 2.59675 22.5544 2.20848C19.8514 1.82021 18.7836 1.79034 16.5361 2.05914Z" fill="url(#paint2_linear_144_1349)"/>
<path id="Vector_4" d="M49.6587 10.6089C48.352 10.7359 46.7616 11.4527 45.2234 12.6175C44.641 13.0655 44.0885 13.4612 44.0063 13.5135C43.7973 13.618 43.7077 13.506 43.6106 13.0132C43.521 12.5279 43.1626 11.8111 42.8266 11.4377C42.6847 11.2809 42.3412 11.042 42.065 10.9001C41.5722 10.6537 41.5274 10.6463 40.6612 10.6463H39.7652L39.1231 10.9524C38.0926 11.4527 37.5102 12.0948 37.2116 13.0431C37.0846 13.4612 37.0772 14.0362 37.0772 24.2358C37.0772 35.7048 37.0697 35.3763 37.4356 36.108C37.6745 36.5934 38.4062 37.2878 38.9588 37.5715C39.3545 37.7731 39.5636 37.8329 39.9817 37.8478C40.8106 37.8926 42.2292 37.4894 42.849 37.0414C43.2149 36.78 43.7898 35.9886 44.0063 35.4509C44.1706 35.0701 44.1706 34.9805 44.2154 28.4919C44.2453 24.0118 44.2901 21.8091 44.3423 21.5552C44.4842 20.9654 45.0816 19.7856 45.425 19.4272C46.2762 18.5461 47.3067 18.0085 48.7403 17.7024C49.2928 17.5829 49.8454 17.5306 50.9654 17.5008C51.9809 17.4709 52.5185 17.4261 52.6529 17.3589C52.8993 17.232 53.3846 16.5973 53.6758 16.0223C54.191 14.9845 54.3404 13.969 54.079 13.3119C53.7281 12.4607 52.5782 11.266 51.7195 10.8703C51.1073 10.5865 50.6145 10.5268 49.6587 10.6089Z" fill="url(#paint3_linear_144_1349)"/>
<path id="Vector_5" d="M111.215 10.639C110.312 10.8556 109.603 11.7591 109.356 12.9986C109.274 13.3943 109.267 15.5074 109.311 24.2361C109.364 34.0848 109.379 35.0256 109.498 35.4363C109.804 36.4966 110.357 37.1686 111.298 37.6166C111.858 37.8779 111.88 37.8854 112.589 37.848C113.411 37.8032 114.635 37.4448 115.203 37.0864C115.531 36.8848 115.949 36.3099 116.144 35.7947C116.45 35.0032 116.45 35.0853 116.45 28.1188C116.45 20.9582 116.45 21.003 116.823 20.2115C117.047 19.7336 117.876 18.7405 118.279 18.4792C118.436 18.3746 118.876 18.173 119.265 18.0237C119.832 17.8072 120.093 17.7549 120.706 17.725C121.654 17.6728 122.05 17.7549 123.006 18.2178C124.417 18.9048 125.074 19.6589 125.843 21.4584L126.007 21.8467L126.045 28.5295L126.082 35.2123L126.261 35.6901C126.47 36.2427 127 36.9744 127.441 37.3104C127.993 37.736 128.516 37.8854 129.412 37.8854C130.734 37.8854 131.786 37.5494 132.22 36.9894C132.563 36.5488 132.839 36.0336 132.966 35.608C133.13 35.048 133.16 31.8447 133.071 25.0201C132.989 19.1661 132.981 18.9795 132.608 17.5309C132.093 15.5149 130.756 13.6258 128.949 12.3713C127.934 11.662 127.374 11.3559 126.605 11.0721C125.507 10.6689 124.939 10.5793 123.468 10.5718C122.005 10.5718 121.505 10.6465 120.258 11.0497C118.876 11.4903 118.048 11.9084 116.494 12.9463C116.151 13.1778 115.83 13.3495 115.793 13.3196C115.755 13.2972 115.576 12.9612 115.397 12.5729C114.882 11.4679 114.165 10.7959 113.291 10.6166C112.776 10.5121 111.701 10.5196 111.215 10.639Z" fill="url(#paint4_linear_144_1349)"/>
<path id="Vector_6" d="M196.493 10.654C195.656 10.9228 194.768 11.6919 194.35 12.5057C194.193 12.8044 194.193 12.8642 194.253 15.9106C194.283 17.613 194.335 22.571 194.365 26.9241C194.41 33.8981 194.432 34.8912 194.536 35.3093C194.783 36.2352 195.126 36.6982 196.037 37.3328C196.896 37.9302 197.665 38.0048 198.927 37.6315C199.95 37.3328 200.443 37.079 200.786 36.6832C201.122 36.3024 201.257 35.9365 201.436 34.9136C201.548 34.264 201.555 33.7562 201.525 31.0309C201.473 25.5801 201.496 22.4216 201.6 21.6974C201.749 20.6296 202.085 20.0472 203.146 18.9944C203.564 18.5837 203.84 18.3896 204.378 18.1208C205.169 17.7325 205.684 17.628 206.76 17.628C207.924 17.6354 208.664 17.9864 209.746 19.0467C210.478 19.7635 210.784 20.2861 211.158 21.436C211.508 22.5262 211.538 23.1011 211.456 27.3273C211.359 32.4869 211.434 34.6971 211.732 35.7648C211.867 36.2427 212.337 36.9595 212.681 37.2208C213.487 37.8256 214.816 38.0272 216.026 37.7211C217.041 37.4672 217.594 37.0864 218.012 36.3771C218.542 35.4885 218.624 34.0624 218.654 25.6025C218.669 19.5171 218.662 19.3155 218.244 17.74C217.415 14.6188 214.197 11.5425 210.963 10.7809C210.127 10.5868 207.797 10.5868 206.946 10.7809C204.729 11.2961 202.713 12.1772 201.458 13.1927C201.167 13.4242 200.921 13.6034 200.906 13.5884C200.898 13.5735 200.689 13.1554 200.45 12.6625C199.942 11.6321 199.517 11.1393 198.815 10.7958C198.442 10.6166 198.277 10.5793 197.62 10.5569C197.083 10.542 196.762 10.5718 196.493 10.654Z" fill="url(#paint5_linear_144_1349)"/>
<path id="Vector_7" d="M65.9373 10.6613C65.2354 10.7807 63.4509 11.2735 62.7565 11.5423C60.8898 12.2666 59.1351 13.3045 58.0449 14.32C56.3201 15.9179 54.4385 19.2555 53.9531 21.5553C53.7888 22.3319 53.7216 24.6839 53.8336 25.9906C54.0278 28.38 55.1478 30.8291 57.0593 33.0467C58.7393 34.9955 60.6583 36.3172 63.1746 37.2505C64.6306 37.7956 65.5565 37.9524 67.2813 37.9524C68.812 37.9524 69.7304 37.8404 71.2089 37.482C72.6574 37.131 74.6959 36.25 75.9727 35.4137C76.585 35.0179 77.6303 34.0025 77.9589 33.4873C78.265 33.0019 78.265 32.4792 77.9663 31.852C77.5631 30.9933 75.8607 29.164 75.2857 28.9698C74.9423 28.8578 74.1732 29.1042 73.2249 29.6344C71.3507 30.6797 70.3502 31.0829 68.9987 31.3368C67.7741 31.5683 66.3181 31.3219 64.8546 30.62C64.332 30.3736 63.3911 29.5747 62.6295 28.7458C62.0844 28.156 61.3676 26.8717 61.502 26.7447C61.5394 26.7074 62.5026 26.7074 63.7719 26.7373C66.9005 26.8343 72.6649 26.8269 74.0164 26.7298C75.5993 26.6253 76.137 26.5058 77.0479 26.0578C78.0485 25.5725 78.937 24.7362 79.3178 23.9372C79.5642 23.422 79.5642 23.4071 79.5567 22.3319C79.5493 19.5243 78.8175 17.5904 76.8687 15.2011C74.3823 12.1472 71.1267 10.5866 67.3261 10.6165C66.6691 10.6239 66.0419 10.6463 65.9373 10.6613ZM67.8787 17.1798C69.4691 17.3739 70.7833 18.1057 71.978 19.4497C72.3961 19.9201 72.9337 20.9356 72.971 21.3238L72.9934 21.5478H69.932C62.2487 21.5404 60.7852 21.518 60.733 21.3985C60.6135 21.0774 61.629 19.614 62.7266 18.5238C63.2941 17.9563 63.8242 17.6353 64.6306 17.3664C65.3698 17.12 66.7288 17.0454 67.8787 17.1798Z" fill="url(#paint6_linear_144_1349)"/>
<path id="Vector_8" d="M93.0403 10.6612C90.5389 11.0719 88.7021 11.7589 86.6935 13.0431C85.1927 13.9989 84.3937 14.7754 83.311 16.336C81.9446 18.2848 81.0561 21.503 81.0635 24.4972C81.0635 26.7074 81.4593 28.2082 82.7884 30.9933C84.222 33.995 87.4775 36.6681 90.7554 37.5268C92.0248 37.8628 92.9955 37.9598 94.683 37.915C96.2734 37.8777 96.9529 37.7881 98.3043 37.4372C99.8724 37.034 102.209 35.8019 103.329 34.7864C103.845 34.316 104.778 33.211 104.92 32.9048C105.092 32.5315 105.099 32.0312 104.942 31.7027C104.771 31.3293 102.112 28.7906 101.627 28.5293C101.485 28.4546 101.388 28.5069 100.768 28.9773C99.9321 29.6045 98.7076 30.3213 98.0355 30.5752C97.0798 30.9336 95.1235 31.1128 93.6227 30.9933C92.3906 30.8888 92.0696 30.8216 91.5469 30.5378C90.8898 30.1869 89.2994 28.589 88.9783 27.9543C88.9111 27.8199 88.8589 27.5661 88.8589 27.3869V27.0509L93.1747 27.0061C99.3796 26.9463 101.866 26.8567 102.71 26.67C103.89 26.3938 105.472 25.5202 105.906 24.8929C106.227 24.4225 106.48 23.7953 106.607 23.1383C106.704 22.623 106.712 22.414 106.637 21.8689C106.443 20.3905 105.943 18.7254 105.286 17.3664C103.658 14.0064 99.835 11.1914 96.2211 10.6911C95.676 10.6164 93.4509 10.594 93.0403 10.6612ZM94.5037 17.359C96.3406 17.5008 97.4382 17.8518 98.4014 18.6134C99.1406 19.2033 99.5588 19.7931 99.8052 20.607C99.962 21.1372 99.9396 21.4134 99.723 21.5553C99.5513 21.6673 99.0958 21.6673 94.1304 21.5852C91.1512 21.5404 88.6199 21.4732 88.5079 21.4433C88.3362 21.391 88.2988 21.3462 88.3063 21.1596C88.3362 20.6219 89.0157 19.6363 90.0386 18.6582C90.748 17.9787 91.1586 17.7323 91.868 17.5382C92.4205 17.3963 93.4509 17.2619 93.7869 17.2992C93.8915 17.3142 94.2125 17.3366 94.5037 17.359Z" fill="url(#paint7_linear_144_1349)"/>
<path id="Vector_9" d="M176.691 10.833C174.943 11.1018 173.039 11.6618 171.673 12.2965C170.381 12.9013 169.358 13.8421 168.88 14.8501C168.567 15.5147 168.612 15.9403 169.075 16.896C169.493 17.7622 170.075 18.4267 170.658 18.7104C171.031 18.8971 171.076 18.9046 171.524 18.8224C171.785 18.7776 172.733 18.5088 173.644 18.2251C175.825 17.5456 176.691 17.3814 178.124 17.3739C179.326 17.3664 179.827 17.456 180.588 17.8144C181.462 18.2326 182.351 19.1808 182.896 20.2859C183.306 21.1147 183.411 21.4358 183.291 21.4806C183.232 21.503 182.239 21.3761 181.066 21.2118C177.587 20.7041 175.937 20.719 173.547 21.279C171.86 21.6822 171.232 21.9361 170.075 22.7201C168.47 23.7879 167.955 24.3703 167.365 25.774C166.879 26.9239 166.618 28.9698 166.805 30.172C167.029 31.6429 167.678 33.1288 168.656 34.443C169.463 35.5182 170.06 36.123 170.807 36.6233C172.203 37.5641 173.443 37.8926 175.832 37.9822C177.415 38.042 178.169 37.9598 179.282 37.6014C180.439 37.2281 182.015 36.2649 182.343 35.7347C182.433 35.5929 182.537 35.4734 182.575 35.4734C182.612 35.4734 182.754 35.6526 182.896 35.8617C183.239 36.3993 184.24 37.3401 184.695 37.5566C185.808 38.0793 187.652 38.0196 188.817 37.4222C189.235 37.2132 189.646 36.795 189.817 36.4067C190.161 35.6377 190.183 35.1598 190.235 28.0439C190.28 20.9654 190.258 20.0097 189.952 18.5163C189.556 16.5301 188.167 14.4394 186.345 13.0805C184.613 11.7962 183.411 11.2735 181.298 10.9002C180.036 10.6687 177.9 10.6388 176.691 10.833ZM180.581 26.1698C181.514 26.4311 182.492 27.1255 182.784 27.7378C182.978 28.1261 182.925 28.4695 182.619 28.9997C181.895 30.2392 180.783 30.9784 179.11 31.3368C178.274 31.516 176.512 31.5608 175.944 31.4189C175.018 31.18 174.249 30.6424 173.846 29.9554C173.659 29.6418 173.644 29.5522 173.652 28.8279C173.659 27.9021 173.734 27.6855 174.279 27.0807C174.719 26.6028 175.332 26.2668 176.071 26.1026C176.773 25.9458 179.954 25.9906 180.581 26.1698Z" fill="url(#paint8_linear_144_1349)"/>
</g>
<defs>
<linearGradient id="paint0_linear_144_1349" x1="234.531" y1="37.9296" x2="234.531" y2="0.466812" gradientUnits="userSpaceOnUse">
<stop stop-color="#29F097"/>
<stop offset="1" stop-color="#2AD4DA"/>
</linearGradient>
<linearGradient id="paint1_linear_144_1349" x1="150.906" y1="37.5287" x2="150.906" y2="1.75817" gradientUnits="userSpaceOnUse">
<stop stop-color="#29F097"/>
<stop offset="1" stop-color="#2AD4DA"/>
</linearGradient>
<linearGradient id="paint2_linear_144_1349" x1="16.5919" y1="37.9967" x2="16.5919" y2="1.8828" gradientUnits="userSpaceOnUse">
<stop stop-color="#29F097"/>
<stop offset="1" stop-color="#2AD4DA"/>
</linearGradient>
<linearGradient id="paint3_linear_144_1349" x1="45.6412" y1="37.8512" x2="45.6412" y2="10.575" gradientUnits="userSpaceOnUse">
<stop stop-color="#29F097"/>
<stop offset="1" stop-color="#2AD4DA"/>
</linearGradient>
<linearGradient id="paint4_linear_144_1349" x1="121.202" y1="37.8854" x2="121.202" y2="10.5435" gradientUnits="userSpaceOnUse">
<stop stop-color="#29F097"/>
<stop offset="1" stop-color="#2AD4DA"/>
</linearGradient>
<linearGradient id="paint5_linear_144_1349" x1="206.437" y1="37.8625" x2="206.437" y2="10.5532" gradientUnits="userSpaceOnUse">
<stop stop-color="#29F097"/>
<stop offset="1" stop-color="#2AD4DA"/>
</linearGradient>
<linearGradient id="paint6_linear_144_1349" x1="66.6686" y1="37.9524" x2="66.6686" y2="10.616" gradientUnits="userSpaceOnUse">
<stop stop-color="#29F097"/>
<stop offset="1" stop-color="#2AD4DA"/>
</linearGradient>
<linearGradient id="paint7_linear_144_1349" x1="93.8755" y1="37.9253" x2="93.8755" y2="10.6212" gradientUnits="userSpaceOnUse">
<stop stop-color="#29F097"/>
<stop offset="1" stop-color="#2AD4DA"/>
</linearGradient>
<linearGradient id="paint8_linear_144_1349" x1="178.499" y1="38" x2="178.499" y2="10.7049" gradientUnits="userSpaceOnUse">
<stop stop-color="#29F097"/>
<stop offset="1" stop-color="#2AD4DA"/>
</linearGradient>
</defs>
</svg>
