<svg width="20" height="14" viewBox="0 0 20 14" fill="none" xmlns="http://www.w3.org/2000/svg">
<g id="Group">
<path id="Vector" d="M17.9536 6.20423C18.207 6.5595 18.3337 6.73714 18.3337 7.00008C18.3337 7.26303 18.207 7.44066 17.9536 7.79593C16.8152 9.39221 13.908 12.8334 10.0003 12.8334C6.09264 12.8334 3.18541 9.39221 2.04703 7.79593C1.79367 7.44066 1.66699 7.26303 1.66699 7.00008C1.66699 6.73714 1.79367 6.5595 2.04703 6.20424C3.18541 4.60795 6.09264 1.16675 10.0003 1.16675C13.908 1.16675 16.8152 4.60795 17.9536 6.20423Z" stroke="#CECECE" stroke-width="1.5"/>
<path id="Vector_2" d="M12.5 7C12.5 5.61929 11.3807 4.5 10 4.5C8.61929 4.5 7.5 5.61929 7.5 7C7.5 8.38071 8.61929 9.5 10 9.5C11.3807 9.5 12.5 8.38071 12.5 7Z" stroke="#CECECE" stroke-width="1.5"/>
</g>
</svg>
