<svg width="26" height="26" viewBox="0 0 26 26" fill="none" xmlns="http://www.w3.org/2000/svg">
<g id="Group">
<path id="Vector" d="M6.33341 8.44455V7.389C6.33341 5.70929 7.00067 4.09838 8.18841 2.91065C9.37614 1.72292 10.987 1.05566 12.6667 1.05566C14.3465 1.05566 15.9574 1.72292 17.1451 2.91065C18.3328 4.09838 19.0001 5.70929 19.0001 7.389V8.44455H21.1112C21.3911 8.44455 21.6596 8.55576 21.8576 8.75372C22.0555 8.95167 22.1667 9.22016 22.1667 9.50011V22.1668C22.1667 22.4467 22.0555 22.7152 21.8576 22.9132C21.6596 23.1111 21.3911 23.2223 21.1112 23.2223H4.2223C3.94235 23.2223 3.67387 23.1111 3.47591 22.9132C3.27796 22.7152 3.16675 22.4467 3.16675 22.1668V9.50011C3.16675 9.22016 3.27796 8.95167 3.47591 8.75372C3.67387 8.55576 3.94235 8.44455 4.2223 8.44455H6.33341ZM20.0556 10.5557H5.27786V21.1112H20.0556V10.5557ZM11.6112 16.6061C11.2087 16.3737 10.8942 16.0151 10.7163 15.5857C10.5385 15.1564 10.5073 14.6803 10.6276 14.2314C10.7479 13.7825 11.0129 13.3859 11.3816 13.103C11.7503 12.8201 12.202 12.6667 12.6667 12.6667C13.1315 12.6667 13.5832 12.8201 13.9519 13.103C14.3206 13.3859 14.5856 13.7825 14.7059 14.2314C14.8262 14.6803 14.795 15.1564 14.6172 15.5857C14.4393 16.0151 14.1248 16.3737 13.7223 16.6061V19.0001H11.6112V16.6061ZM8.44453 8.44455H16.889V7.389C16.889 6.26919 16.4441 5.19526 15.6523 4.40344C14.8605 3.61162 13.7866 3.16678 12.6667 3.16678C11.5469 3.16678 10.473 3.61162 9.68119 4.40344C8.88937 5.19526 8.44453 6.26919 8.44453 7.389V8.44455Z" fill="black"/>
</g>
</svg>
