<svg width="20" height="15" viewBox="0 0 20 15" fill="none" xmlns="http://www.w3.org/2000/svg">
<g id="Chip">
<g id="Fill">
<path d="M0.493164 3.52308C0.493164 1.99883 1.719 0.763184 3.23115 0.763184H16.9211C18.4332 0.763184 19.6591 1.99883 19.6591 3.52308V11.8028C19.6591 13.327 18.4332 14.5626 16.9211 14.5626H3.23115C1.719 14.5626 0.493164 13.327 0.493164 11.8028V3.52308Z" fill="white" fill-opacity="0.7"/>
<path d="M0.724559 3.52308C0.724559 2.12488 1.84853 0.994579 3.23115 0.994579H16.9211C18.3037 0.994579 19.4277 2.12488 19.4277 3.52308V11.8028C19.4277 13.2009 18.3037 14.3313 16.9211 14.3313H3.23115C1.84853 14.3313 0.724559 13.2009 0.724559 11.8028V3.52308Z" stroke="white" stroke-opacity="0.7" stroke-width="0.462791"/>
</g>
<g id="Chip_2">
<path d="M5.11502 1.1084H5.45727V14.2179H5.11502V10.078H0.836914V9.73306H5.11502V5.59322H0.836914V5.24824H5.11502V1.1084Z" fill="white" fill-opacity="0.7"/>
<path d="M14.8691 9.73306H19.3183V10.078H14.8691V14.2179H14.5269V7.31816C14.5269 6.17497 15.4462 5.24824 16.5803 5.24824H19.3183V5.59322H16.5803C15.6353 5.59322 14.8691 6.3655 14.8691 7.31816V9.73306Z" fill="white" fill-opacity="0.7"/>
<path d="M14.8691 1.1084H14.5269V3.86829H14.8691V1.1084Z" fill="white" fill-opacity="0.7"/>
<path fill-rule="evenodd" clip-rule="evenodd" d="M12.4734 7.66314C12.4734 8.99686 11.4008 10.078 10.0776 10.078C8.75449 10.078 7.68189 8.99686 7.68189 7.66314C7.68189 6.32943 8.75449 5.24824 10.0776 5.24824C11.4008 5.24824 12.4734 6.32943 12.4734 7.66314ZM12.1311 7.66314C12.1311 8.80633 11.2117 9.73306 10.0776 9.73306C8.94351 9.73306 8.02413 8.80633 8.02413 7.66314C8.02413 6.51996 8.94351 5.59322 10.0776 5.59322C11.2117 5.59322 12.1311 6.51996 12.1311 7.66314Z" fill="white" fill-opacity="0.7"/>
</g>
</g>
</svg>
