<svg width="54" height="55" viewBox="0 0 54 55" fill="none" xmlns="http://www.w3.org/2000/svg">
<g id="Group">
<path id="Vector" d="M5.39951 27.0136C2.91141 22.6752 1.71005 19.1326 0.985655 15.5416C-0.0857041 10.2305 2.36607 5.0425 6.42767 1.73214C8.14427 0.333039 10.1121 0.811053 11.1272 2.63214L13.4188 6.74345C15.2353 10.0022 16.1435 11.6315 15.9633 13.359C15.7832 15.0864 14.5583 16.4933 12.1086 19.3072L5.39951 27.0136ZM5.39951 27.0136C10.4356 35.795 18.3389 43.7026 27.1304 48.7446M27.1304 48.7446C31.4689 51.2326 35.0115 52.434 38.6025 53.1584C43.9135 54.2298 49.1016 51.778 52.4119 47.7164C53.811 45.9998 53.333 44.032 51.5119 43.0169L47.4006 40.7252C44.1419 38.9088 42.5125 38.0006 40.7851 38.1807C39.0576 38.3609 37.6507 39.5857 34.8369 42.0354L27.1304 48.7446Z" stroke="url(#paint0_linear_162_5839)" stroke-width="1.41018" stroke-linejoin="round"/>
</g>
<defs>
<linearGradient id="paint0_linear_162_5839" x1="26.9791" y1="0.919922" x2="26.9791" y2="53.4099" gradientUnits="userSpaceOnUse">
<stop stop-color="#29F098"/>
<stop offset="1" stop-color="#27DDD4"/>
</linearGradient>
</defs>
</svg>
