<svg width="161" height="171" viewBox="0 0 161 171" fill="none" xmlns="http://www.w3.org/2000/svg">
<g id="Pic1">
<g id="Group" filter="url(#filter0_d_829_5113)">
<g id="Mask Group">
<ellipse id="Ellipse 2024" cx="80.5" cy="81.5" rx="74.5" ry="72.5" fill="#EEEEEE"/>
<path id="Rectangle 5615" d="M125 53H39C36.2386 53 34 55.2386 34 58V163C34 165.761 36.2386 168 39 168H125C127.761 168 130 165.761 130 163V58C130 55.2386 127.761 53 125 53Z" fill="#F6F6F6"/>
</g>
</g>
<path id="Rectangle 5617" d="M73 63H47C45.3431 63 44 64.3431 44 66C44 67.6569 45.3431 69 47 69H73C74.6569 69 76 67.6569 76 66C76 64.3431 74.6569 63 73 63Z" fill="#CFFBF8"/>
<path id="Rectangle 5620" d="M73 105H47C45.3431 105 44 106.343 44 108C44 109.657 45.3431 111 47 111H73C74.6569 111 76 109.657 76 108C76 106.343 74.6569 105 73 105Z" fill="#CFFBF8"/>
<g id="Rectangle 5618">
<path id="Vector" d="M115 78H49C46.7909 78 45 79.7909 45 82V92C45 94.2091 46.7909 96 49 96H115C117.209 96 119 94.2091 119 92V82C119 79.7909 117.209 78 115 78Z" stroke="#00FFEB" stroke-width="2"/>
</g>
<path id="Rectangle 5619" d="M115 119H49C46.2386 119 44 121.239 44 124V132C44 134.761 46.2386 137 49 137H115C117.761 137 120 134.761 120 132V124C120 121.239 117.761 119 115 119Z" fill="#CFFBF8"/>
<g id="Group 26781">
<path id="Ellipse 654" d="M60 42C62.2091 42 64 40.2091 64 38C64 35.7909 62.2091 34 60 34C57.7909 34 56 35.7909 56 38C56 40.2091 57.7909 42 60 42Z" fill="#F6F6F6"/>
<path id="Ellipse 655" d="M82 42C84.2091 42 86 40.2091 86 38C86 35.7909 84.2091 34 82 34C79.7909 34 78 35.7909 78 38C78 40.2091 79.7909 42 82 42Z" fill="#00FFEB"/>
<path id="Ellipse 656" d="M104 42C106.209 42 108 40.2091 108 38C108 35.7909 106.209 34 104 34C101.791 34 100 35.7909 100 38C100 40.2091 101.791 42 104 42Z" fill="#F6F6F6"/>
</g>
<g id="Group 26782">
<path id="Ellipse 658" d="M93 98C95.7614 98 98 95.7614 98 93C98 90.2386 95.7614 88 93 88C90.2386 88 88 90.2386 88 93C88 95.7614 90.2386 98 93 98Z" fill="#DFEAFB"/>
<path id="Path 25916" d="M96.9071 114.37C96.1071 114.37 95.3601 114.37 94.6801 114.327C93.8425 114.27 93.0367 113.984 92.3515 113.499C91.6662 113.014 91.128 112.349 90.7961 111.578L86.5771 103.24C86.2676 102.88 86.1131 102.412 86.1472 101.938C86.1813 101.464 86.4012 101.023 86.7591 100.711C87.0522 100.475 87.418 100.348 87.7941 100.352C88.071 100.36 88.3428 100.428 88.5909 100.551C88.839 100.674 89.0574 100.85 89.2311 101.066L91.1471 103.681L91.1761 103.715V93.7799C91.1761 93.287 91.3719 92.8143 91.7204 92.4657C92.069 92.1172 92.5417 91.9214 93.0346 91.9214C93.5275 91.9214 94.0002 92.1172 94.3487 92.4657C94.6973 92.8143 94.8931 93.287 94.8931 93.7799V100.28C94.8715 100.041 94.9 99.7996 94.9767 99.5721C95.0534 99.3445 95.1767 99.1354 95.3387 98.9581C95.5007 98.7808 95.6979 98.6392 95.9176 98.5424C96.1374 98.4455 96.3749 98.3955 96.6151 98.3955C96.8552 98.3955 97.0928 98.4455 97.3125 98.5424C97.5323 98.6392 97.7294 98.7808 97.8914 98.9581C98.0534 99.1354 98.1767 99.3445 98.2535 99.5721C98.3302 99.7996 98.3587 100.041 98.3371 100.28V101.635C98.3155 101.396 98.344 101.155 98.4207 100.927C98.4974 100.699 98.6207 100.49 98.7827 100.313C98.9447 100.136 99.1419 99.9942 99.3616 99.8974C99.5814 99.8005 99.8189 99.7505 100.059 99.7505C100.299 99.7505 100.537 99.8005 100.757 99.8974C100.976 99.9942 101.173 100.136 101.335 100.313C101.497 100.49 101.621 100.699 101.697 100.927C101.774 101.155 101.803 101.396 101.781 101.635V102.679C101.759 102.44 101.788 102.199 101.865 101.971C101.941 101.743 102.065 101.534 102.227 101.357C102.389 101.18 102.586 101.038 102.806 100.941C103.025 100.844 103.263 100.794 103.503 100.794C103.743 100.794 103.981 100.844 104.201 100.941C104.42 101.038 104.617 101.18 104.779 101.357C104.941 101.534 105.065 101.743 105.141 101.971C105.218 102.199 105.247 102.44 105.225 102.679V109.016C105.191 110.965 104.31 114.251 101.211 114.251C100.986 114.261 99.0801 114.371 96.9111 114.371L96.9071 114.37Z" fill="#00FFEB" stroke="#F6F6F6"/>
</g>
</g>
<defs>
<filter id="filter0_d_829_5113" x="0" y="0" width="161" height="171" filterUnits="userSpaceOnUse" color-interpolation-filters="sRGB">
<feFlood flood-opacity="0" result="BackgroundImageFix"/>
<feColorMatrix in="SourceAlpha" type="matrix" values="0 0 0 0 0 0 0 0 0 0 0 0 0 0 0 0 0 0 127 0" result="hardAlpha"/>
<feOffset dy="-3"/>
<feGaussianBlur stdDeviation="3"/>
<feColorMatrix type="matrix" values="0 0 0 0 0.788235 0 0 0 0 0.803922 0 0 0 0 0.85098 0 0 0 0.349 0"/>
<feBlend mode="normal" in2="BackgroundImageFix" result="effect1_dropShadow_829_5113"/>
<feBlend mode="normal" in="SourceGraphic" in2="effect1_dropShadow_829_5113" result="shape"/>
</filter>
</defs>
</svg>
