<svg width="74" height="60" viewBox="0 0 74 60" fill="none" xmlns="http://www.w3.org/2000/svg">
<g id="Group">
<path id="Vector" d="M6.7341 55.4533L7.174 54.9023L6.7341 55.4533ZM4.73523 53.5516L5.26404 53.0852L4.73523 53.5516ZM69.2229 53.5516L68.6941 53.0852L69.2229 53.5516ZM67.2241 55.4533L66.7842 54.9023L67.2241 55.4533ZM67.2241 4.38534L66.7842 4.93637L67.2241 4.38534ZM69.2229 6.28707L68.6941 6.75346L69.2229 6.28707ZM6.7341 4.38534L7.174 4.93637L6.7341 4.38534ZM4.73523 6.28707L5.26404 6.75346L4.73523 6.28707ZM29.7715 43.7861C29.3821 43.7861 29.0664 44.1018 29.0664 44.4912C29.0664 44.8806 29.3821 45.1963 29.7715 45.1963V43.7861ZM35.1772 45.1963C35.5666 45.1963 35.8823 44.8806 35.8823 44.4912C35.8823 44.1018 35.5666 43.7861 35.1772 43.7861V45.1963ZM45.9886 43.7861C45.5992 43.7861 45.2835 44.1018 45.2835 44.4912C45.2835 44.8806 45.5992 45.1963 45.9886 45.1963V43.7861ZM58.6018 45.1963C58.9912 45.1963 59.3069 44.8806 59.3069 44.4912C59.3069 44.1018 58.9912 43.7861 58.6018 43.7861V45.1963ZM31.5734 1.48072H42.3848V0.0705451H31.5734V1.48072ZM42.3848 58.358H31.5734V59.7681H42.3848V58.358ZM31.5734 58.358C24.7841 58.358 19.7521 58.3569 15.8499 57.9113C11.9612 57.4673 9.28793 56.5899 7.174 54.9023L6.2942 56.0044C8.70187 57.9265 11.6757 58.854 15.6899 59.3124C19.6907 59.7692 24.8176 59.7681 31.5734 59.7681V58.358ZM0.236072 29.9193C0.236072 36.3444 0.23476 41.2293 0.715876 45.0431C1.19937 48.8758 2.17935 51.7196 4.20643 54.018L5.26404 53.0852C3.49705 51.0817 2.57999 48.5529 2.11497 44.8666C1.64756 41.1615 1.64625 36.3812 1.64625 29.9193H0.236072ZM7.174 54.9023C6.48256 54.3503 5.84353 53.7423 5.26404 53.0852L4.20643 54.018C4.84062 54.7371 5.53924 55.4017 6.2942 56.0044L7.174 54.9023ZM72.3119 29.9193C72.3119 36.3812 72.3106 41.1615 71.8432 44.8666C71.3782 48.5529 70.4611 51.0817 68.6941 53.0852L69.7517 54.018C71.7788 51.7196 72.7588 48.8758 73.2423 45.0431C73.7234 41.2293 73.7221 36.3444 73.7221 29.9193H72.3119ZM42.3848 59.7681C49.1406 59.7681 54.2674 59.7692 58.2682 59.3124C62.2825 58.854 65.2563 57.9265 67.664 56.0044L66.7842 54.9023C64.6702 56.5899 61.9969 57.4673 58.1082 57.9113C54.2061 58.3569 49.1741 58.358 42.3848 58.358V59.7681ZM68.6941 53.0852C68.1146 53.7423 67.4756 54.3503 66.7842 54.9023L67.664 56.0044C68.4189 55.4017 69.1175 54.7371 69.7517 54.018L68.6941 53.0852ZM42.3848 1.48072C49.1741 1.48072 54.2061 1.4818 58.1082 1.92739C61.9969 2.37143 64.6702 3.24877 66.7842 4.93637L67.664 3.83431C65.2563 1.9122 62.2825 0.984694 58.2682 0.526311C54.2674 0.0694664 49.1406 0.0705451 42.3848 0.0705451V1.48072ZM73.7221 29.9193C73.7221 23.4943 73.7234 18.6094 73.2423 14.7956C72.7588 10.9629 71.7788 8.11908 69.7517 5.82069L68.6941 6.75346C70.4611 8.75695 71.3782 11.2858 71.8432 14.9721C72.3106 18.6772 72.3119 23.4574 72.3119 29.9193H73.7221ZM66.7842 4.93637C67.4756 5.48837 68.1146 6.09642 68.6941 6.75346L69.7517 5.82069C69.1175 5.10162 68.4189 4.43701 67.664 3.83431L66.7842 4.93637ZM31.5734 0.0705451C24.8176 0.0705451 19.6907 0.0694664 15.6899 0.526311C11.6757 0.984694 8.70187 1.9122 6.2942 3.83431L7.174 4.93637C9.28793 3.24877 11.9612 2.37143 15.8499 1.92739C19.7521 1.4818 24.7841 1.48072 31.5734 1.48072V0.0705451ZM1.64625 29.9193C1.64625 23.4574 1.64756 18.6772 2.11497 14.9721C2.57999 11.2858 3.49705 8.75695 5.26404 6.75346L4.20643 5.82069C2.17935 8.11908 1.19937 10.9629 0.715876 14.7956C0.23476 18.6094 0.236072 23.4943 0.236072 29.9193H1.64625ZM6.2942 3.83431C5.53924 4.43701 4.84062 5.10162 4.20643 5.82069L5.26404 6.75346C5.84352 6.09641 6.48256 5.48837 7.174 4.93637L6.2942 3.83431ZM29.7715 45.1963H35.1772V43.7861H29.7715V45.1963ZM45.9886 45.1963H58.6018V43.7861H45.9886V45.1963ZM0.941162 19.6955H73.017V18.2854H0.941162V19.6955Z" fill="url(#paint0_linear_162_5837)"/>
</g>
<defs>
<linearGradient id="paint0_linear_162_5837" x1="36.9791" y1="0.775635" x2="36.9791" y2="59.063" gradientUnits="userSpaceOnUse">
<stop offset="0.065" stop-color="#28EF97"/>
<stop offset="1" stop-color="#26DCD3"/>
</linearGradient>
</defs>
</svg>
