<svg width="30" height="19" viewBox="0 0 30 19" fill="none" xmlns="http://www.w3.org/2000/svg">
<g id="Group">
<g id="Group_2">
<path id="Vector" d="M19.0846 2.67212H11.231V16.612H19.0846V2.67212Z" fill="#FF5F00"/>
<path id="Vector_2" d="M11.7297 9.64235C11.7297 6.93318 13.0012 4.34716 15.1454 2.6724C11.256 -0.35695 5.62132 0.308028 2.55466 4.17475C-0.511992 8.01685 0.161177 13.583 4.07553 16.6123C7.34164 19.1491 11.9042 19.1491 15.1703 16.6123C13.0012 14.9376 11.7297 12.3515 11.7297 9.64235Z" fill="#EB001B"/>
<path id="Vector_3" d="M29.6807 9.64235C29.6807 14.5435 25.6666 18.5087 20.7051 18.5087C18.6856 18.5087 16.7409 17.8438 15.1702 16.6123C19.0596 13.583 19.7328 8.01685 16.6661 4.15013C16.2173 3.60829 15.7187 3.09109 15.1702 2.6724C19.0596 -0.356951 24.7192 0.308028 27.7609 4.17475C29.0075 5.72637 29.6807 7.64742 29.6807 9.64235Z" fill="#F79E1B"/>
</g>
</g>
</svg>
