<svg width="26" height="26" viewBox="0 0 26 26" fill="none" xmlns="http://www.w3.org/2000/svg">
<g id="Group">
<path id="Vector" d="M19.5257 10.5466L24.1696 22.1565H21.8952L20.6276 18.9901H16.3108L15.0453 22.1565H12.7719L17.4148 10.5466H19.5257ZM10.5544 2.10303V4.21392H16.8871V6.32481H14.81C13.9958 8.77563 12.6964 11.0374 10.9892 12.9752C11.7505 13.6545 12.5763 14.2579 13.4548 14.7768L12.6621 16.7589C11.5281 16.1157 10.4674 15.351 9.49895 14.4781C7.61349 16.1845 5.38065 17.4621 2.95414 18.2228L2.38842 16.1869C4.46747 15.524 6.3833 14.4299 8.01078 12.9762C6.80619 11.6125 5.80285 10.0835 5.03126 8.4357H7.39545C7.98371 9.5216 8.68907 10.5398 9.49895 11.4722C10.8184 9.95142 11.8582 8.2091 12.5703 6.32586L2.11084 6.32481V4.21392H8.44351V2.10303H10.5544ZM18.4702 13.5915L17.1541 16.8793H19.7843L18.4702 13.5915Z" fill="black"/>
</g>
</svg>
