<svg width="26" height="26" viewBox="0 0 26 26" fill="none" xmlns="http://www.w3.org/2000/svg">
<g id="Group">
<path id="Vector" d="M23.3356 20.3786V22.4898H21.2245V20.3786H4.33561V22.4898H2.2245V20.3786C1.94455 20.3786 1.67607 20.2674 1.47811 20.0695C1.28016 19.8715 1.16895 19.603 1.16895 19.3231V6.65642C1.16895 6.37647 1.28016 6.10798 1.47811 5.91003C1.67607 5.71207 1.94455 5.60086 2.2245 5.60086H13.3374C13.9308 4.93592 14.6582 4.40406 15.4717 4.04021C16.2853 3.67637 17.1666 3.48877 18.0578 3.48975C19.9336 3.48975 21.6193 4.30569 22.7783 5.60086H23.3356C23.6156 5.60086 23.884 5.71207 24.082 5.91003C24.28 6.10798 24.3912 6.37647 24.3912 6.65642V19.3231C24.3912 19.603 24.28 19.8715 24.082 20.0695C23.884 20.2674 23.6156 20.3786 23.3356 20.3786ZM12.0844 7.71197H3.28006V18.2675H22.2801V14.5435C21.232 15.4822 19.9013 16.0452 18.4978 16.1436C17.0943 16.2421 15.698 15.8704 14.5292 15.0873C13.3604 14.3041 12.4856 13.154 12.0429 11.8186C11.6002 10.4831 11.6149 9.03823 12.0844 7.71197V7.71197ZM18.0578 14.0453C19.1776 14.0453 20.2516 13.6005 21.0434 12.8086C21.8352 12.0168 22.2801 10.9429 22.2801 9.82308C22.2801 8.70328 21.8352 7.62934 21.0434 6.83752C20.2516 6.0457 19.1776 5.60086 18.0578 5.60086C16.938 5.60086 15.8641 6.0457 15.0723 6.83752C14.2805 7.62934 13.8356 8.70328 13.8356 9.82308C13.8356 10.9429 14.2805 12.0168 15.0723 12.8086C15.8641 13.6005 16.938 14.0453 18.0578 14.0453V14.0453ZM5.39117 14.0453H7.50228V16.1564H5.39117V14.0453ZM8.55783 14.0453H10.6689V16.1564H8.55783V14.0453Z" fill="black"/>
</g>
</svg>
