<svg width="11" height="11" viewBox="0 0 11 11" fill="none" xmlns="http://www.w3.org/2000/svg">
<g id="Group">
<path id="Vector" d="M6.25879 1.70891C6.59204 1.34785 6.75867 1.16732 6.93573 1.06201C7.36296 0.807925 7.88902 0.800024 8.32338 1.04117C8.5034 1.14111 8.67515 1.31656 9.01864 1.66745C9.36214 2.01835 9.53389 2.1938 9.63172 2.37769C9.86778 2.8214 9.86005 3.3588 9.61132 3.79523C9.50824 3.9761 9.33151 4.14632 8.97807 4.48674L4.7727 8.53721C4.1029 9.18233 3.76799 9.5049 3.34944 9.66838C2.93088 9.83187 2.47074 9.81983 1.55047 9.79577L1.42526 9.79249C1.1451 9.78517 1.00502 9.7815 0.923587 9.68909C0.842159 9.59668 0.853276 9.45399 0.87551 9.1686L0.887583 9.01364C0.950161 8.21041 0.98145 7.8088 1.1383 7.44778C1.29515 7.08677 1.56571 6.79363 2.10682 6.20736L6.25879 1.70891Z" stroke="#F6F6F6" stroke-width="1.14996" stroke-linejoin="round"/>
<path id="Vector_2" d="M5.77832 1.76025L8.90875 4.89069" stroke="#F6F6F6" stroke-width="1.14996" stroke-linejoin="round"/>
<path id="Vector_3" d="M6.22559 9.80957L9.80322 9.80957" stroke="#F6F6F6" stroke-width="1.14996" stroke-linecap="round" stroke-linejoin="round"/>
</g>
</svg>
