<svg width="26" height="26" viewBox="0 0 26 26" fill="none" xmlns="http://www.w3.org/2000/svg">
<g id="Group">
<path id="Vector" d="M20.0555 7.389H25.3333V9.50011H20.0555V7.389ZM17.9444 12.6668H25.3333V14.7779H17.9444V12.6668ZM21.1111 17.9446H25.3333V20.0557H21.1111V17.9446ZM2.11108 23.2223C2.11108 20.9827 3.00076 18.8348 4.5844 17.2512C6.16805 15.6676 8.31592 14.7779 10.5555 14.7779C12.7951 14.7779 14.943 15.6676 16.5267 17.2512C18.1103 18.8348 19 20.9827 19 23.2223H16.8889C16.8889 21.5426 16.2216 19.9317 15.0339 18.744C13.8461 17.5563 12.2352 16.889 10.5555 16.889C8.87582 16.889 7.26492 17.5563 6.07719 18.744C4.88946 19.9317 4.2222 21.5426 4.2222 23.2223H2.11108ZM10.5555 13.7223C7.05636 13.7223 4.2222 10.8882 4.2222 7.389C4.2222 3.88983 7.05636 1.05566 10.5555 1.05566C14.0547 1.05566 16.8889 3.88983 16.8889 7.389C16.8889 10.8882 14.0547 13.7223 10.5555 13.7223ZM10.5555 11.6112C12.8883 11.6112 14.7778 9.72178 14.7778 7.389C14.7778 5.05622 12.8883 3.16678 10.5555 3.16678C8.22275 3.16678 6.33331 5.05622 6.33331 7.389C6.33331 9.72178 8.22275 11.6112 10.5555 11.6112Z" fill="black"/>
</g>
</svg>
