<svg width="19" height="22" viewBox="0 0 19 22" fill="none" xmlns="http://www.w3.org/2000/svg">
<g id="Group">
<path id="Vector" d="M2.16626 10.8323L5.37814 8.87722C5.91713 8.54967 6.18663 8.38589 6.37266 8.16126C7.17777 7.18908 6.46877 5.75321 6.58883 4.62269C6.7131 3.45247 7.82906 1.85195 8.95393 1.35575C9.30013 1.20303 9.69728 1.20303 10.0435 1.35575C11.1684 1.85195 12.2843 3.45247 12.4086 4.62269C12.5286 5.7532 11.8196 7.18909 12.6248 8.16126C12.8108 8.38589 13.0803 8.54967 13.6193 8.87722L16.8314 10.8322C17.8145 11.4305 18.2018 12.069 18.2018 13.2703C18.2018 13.924 17.9125 14.0993 17.3291 13.9658L11.6964 12.6771L11.4435 14.8904C11.3518 15.6929 11.306 16.0942 11.4386 16.4617C11.7491 17.3225 12.8035 18.0275 13.4475 18.6537C13.8033 18.9997 14.1917 19.9947 13.7859 20.4472C13.5354 20.7266 13.1284 20.4998 12.8483 20.3908L10.1517 19.342C9.82923 19.2166 9.66801 19.1539 9.49871 19.1539C9.32941 19.1539 9.16817 19.2166 8.84573 19.342L6.14908 20.3908C5.86899 20.4998 5.46203 20.7266 5.21149 20.4472C4.80568 19.9947 5.19408 18.9997 5.54996 18.6537C6.19391 18.0275 7.24829 17.3225 7.55884 16.4617C7.69143 16.0942 7.64558 15.6929 7.55388 14.8904L7.30097 12.6771L1.66871 13.9657C1.08506 14.0993 0.795726 13.9239 0.795904 13.2699C0.79623 12.0689 1.18338 11.4305 2.16626 10.8323Z" stroke="url(#paint0_linear_2052_1383)" stroke-width="1.45051" stroke-linecap="round" stroke-linejoin="round"/>
</g>
<defs>
<linearGradient id="paint0_linear_2052_1383" x1="9.49883" y1="1.24121" x2="9.49883" y2="20.5813" gradientUnits="userSpaceOnUse">
<stop stop-color="#28EF95"/>
<stop offset="1" stop-color="#25D7DC"/>
</linearGradient>
</defs>
</svg>
