<svg width="22" height="22" viewBox="0 0 22 22" fill="none" xmlns="http://www.w3.org/2000/svg">
<g id="Group">
<path id="Vector" d="M14.6608 7.04346C14.4251 7.7507 13.9401 8.29357 13.2535 8.59794C11.0483 9.57552 9.45687 11.1669 8.47929 13.3721C8.17492 14.0587 7.63205 14.5438 6.9248 14.7795" stroke="url(#paint0_linear_2052_1868)" stroke-width="1.45051" stroke-linejoin="round"/>
<path id="Vector_2" d="M2.28345 19.4209L1.12305 20.5813M19.3027 2.40162L20.4631 1.24121" stroke="url(#paint1_linear_2052_1868)" stroke-width="1.45051" stroke-linecap="round" stroke-linejoin="round"/>
<path id="Vector_3" d="M5.17716 12.7832L5.68999 12.2704L5.17716 12.7832ZM8.92112 16.5272L8.40829 17.04L8.92112 16.5272ZM6.67475 18.7736L7.18758 18.2607L6.67475 18.7736ZM8.20318 19.3775L8.48072 20.0476L8.20318 19.3775ZM7.39269 19.3775L7.11515 20.0476L7.39269 19.3775ZM9.52507 17.2451L10.1951 16.9676H10.1951L9.52507 17.2451ZM9.52507 18.0556L10.1951 18.3332L9.52507 18.0556ZM3.64873 12.1793L3.37119 11.5092L3.64873 12.1793ZM4.45922 12.1793L4.73676 11.5092H4.73676L4.45922 12.1793ZM2.32684 13.5012L1.65679 13.2236L2.32684 13.5012ZM2.32684 14.3117L1.65679 14.5892L2.32684 14.3117ZM5.92595 19.5224L6.43879 20.0352L5.92595 19.5224ZM2.93079 19.5224L2.41796 20.0352H2.41796L2.93079 19.5224ZM2.182 18.7736L2.69483 18.2607L2.69483 18.2607L2.182 18.7736ZM4.42837 20.5813L4.42837 19.8561H4.42837L4.42837 20.5813ZM12.6651 5.29533L12.1522 5.80816L12.6651 5.29533ZM16.409 9.03928L16.9219 8.52645L16.409 9.03928ZM18.6554 6.79291L18.1426 7.30574L18.6554 6.79291ZM19.2594 8.32134L19.9294 8.59888L19.2594 8.32134ZM19.2594 7.51085L19.9294 7.23331L19.2594 7.51085ZM17.127 9.64323L16.8494 10.3133V10.3133L17.127 9.64323ZM17.9375 9.64323L18.215 10.3133L17.9375 9.64323ZM12.0611 3.7669L11.3911 3.48935L12.0611 3.7669ZM12.0611 4.57738L11.3911 4.85493V4.85493L12.0611 4.57738ZM13.383 2.44501L13.1055 1.77496L13.383 2.44501ZM14.1935 2.44501L14.471 1.77496L14.1935 2.44501ZM19.4042 6.04412L19.917 6.55695L19.4042 6.04412ZM19.4042 3.04895L19.917 2.53612V2.53612L19.4042 3.04895ZM18.6554 2.30016L18.1426 2.81299L18.1426 2.81299L18.6554 2.30016ZM20.4631 4.54654L19.7379 4.54654V4.54654L20.4631 4.54654ZM4.66433 13.2961L8.40829 17.04L9.43395 16.0144L5.68999 12.2704L4.66433 13.2961ZM7.18758 18.2607L3.44362 14.5168L2.41796 15.5424L6.16191 19.2864L7.18758 18.2607ZM8.40829 18.2607C8.22682 18.4422 8.11613 18.5523 8.02755 18.6296C7.9439 18.7026 7.91983 18.7099 7.92563 18.7075L8.48072 20.0476C8.68112 19.9646 8.84158 19.8443 8.98102 19.7227C9.11554 19.6054 9.26652 19.4538 9.43395 19.2864L8.40829 18.2607ZM6.16191 19.2864C6.32934 19.4538 6.48032 19.6054 6.61484 19.7227C6.75428 19.8443 6.91474 19.9646 7.11515 20.0476L7.67023 18.7075C7.67603 18.7099 7.65197 18.7026 7.56831 18.6296C7.47973 18.5523 7.36904 18.4422 7.18758 18.2607L6.16191 19.2864ZM7.92563 18.7075C7.84387 18.7413 7.752 18.7413 7.67023 18.7075L7.11515 20.0476C7.55233 20.2287 8.04354 20.2287 8.48072 20.0476L7.92563 18.7075ZM8.40829 17.04C8.58975 17.2215 8.69989 17.3322 8.77715 17.4208C8.85012 17.5044 8.85742 17.5285 8.85502 17.5227L10.1951 16.9676C10.1121 16.7672 9.99188 16.6067 9.87025 16.4673C9.75291 16.3328 9.60138 16.1818 9.43395 16.0144L8.40829 17.04ZM9.43395 19.2864C9.60138 19.119 9.75291 18.968 9.87025 18.8335C9.99188 18.694 10.1121 18.5336 10.1951 18.3332L8.85502 17.7781C8.85742 17.7723 8.85012 17.7963 8.77715 17.88C8.69989 17.9686 8.58975 18.0793 8.40829 18.2607L9.43395 19.2864ZM8.85502 17.5227C8.88889 17.6044 8.88889 17.6963 8.85502 17.7781L10.1951 18.3332C10.3762 17.896 10.3762 17.4048 10.1951 16.9676L8.85502 17.5227ZM3.44362 13.2961C3.62508 13.1146 3.73578 13.0045 3.82435 12.9272C3.90801 12.8542 3.93207 12.8469 3.92628 12.8493L3.37119 11.5092C3.17079 11.5923 3.01033 11.7125 2.87089 11.8341C2.73636 11.9514 2.58539 12.103 2.41796 12.2704L3.44362 13.2961ZM5.68999 12.2704C5.52257 12.103 5.37159 11.9514 5.23707 11.8341C5.09763 11.7125 4.93717 11.5923 4.73676 11.5092L4.18168 12.8493C4.17588 12.8469 4.19994 12.8542 4.2836 12.9272C4.37218 13.0045 4.48287 13.1146 4.66433 13.2961L5.68999 12.2704ZM3.92628 12.8493C4.00804 12.8155 4.09991 12.8155 4.18168 12.8493L4.73676 11.5092C4.29958 11.3282 3.80837 11.3282 3.37119 11.5092L3.92628 12.8493ZM2.41796 12.2704C2.25053 12.4378 2.09899 12.5888 1.98166 12.7233C1.86003 12.8628 1.7398 13.0232 1.65679 13.2236L2.99689 13.7787C2.99449 13.7845 3.00179 13.7605 3.07476 13.6768C3.15202 13.5882 3.26216 13.4775 3.44362 13.2961L2.41796 12.2704ZM3.44362 14.5168C3.26216 14.3353 3.15202 14.2246 3.07476 14.1361C3.00179 14.0524 2.99449 14.0283 2.99689 14.0341L1.65679 14.5892C1.7398 14.7896 1.86003 14.9501 1.98166 15.0895C2.09899 15.224 2.25053 15.375 2.41796 15.5424L3.44362 14.5168ZM1.65679 13.2236C1.47571 13.6608 1.47571 14.152 1.65679 14.5892L2.99689 14.0341C2.96302 13.9524 2.96302 13.8605 2.99689 13.7787L1.65679 13.2236ZM2.69483 16.2912L3.44362 15.5424L2.41796 14.5168L1.66917 15.2656L2.69483 16.2912ZM6.16191 18.2607L5.41312 19.0095L6.43879 20.0352L7.18758 19.2864L6.16191 18.2607ZM3.44362 19.0095L2.69483 18.2607L1.66917 19.2864L2.41796 20.0352L3.44362 19.0095ZM5.41312 19.0095C5.04564 19.377 4.82053 19.5999 4.63699 19.74C4.55204 19.8048 4.4992 19.8332 4.469 19.8457C4.44457 19.8559 4.43483 19.8561 4.42837 19.8561L4.42837 21.3066C4.87002 21.3066 5.221 21.1189 5.51684 20.8932C5.79593 20.6802 6.1003 20.3737 6.43879 20.0352L5.41312 19.0095ZM2.41796 20.0352C2.75644 20.3737 3.06081 20.6802 3.33991 20.8932C3.63574 21.1189 3.98672 21.3066 4.42837 21.3066L4.42837 19.8561C4.42191 19.8561 4.41218 19.8559 4.38775 19.8457C4.35754 19.8332 4.3047 19.8048 4.21976 19.74C4.03621 19.5999 3.8111 19.377 3.44362 19.0095L2.41796 20.0352ZM1.66917 15.2656C1.33068 15.6041 1.02414 15.9084 0.811192 16.1875C0.585479 16.4834 0.397793 16.8343 0.397793 17.276H1.8483C1.8483 17.2695 1.84843 17.2598 1.85861 17.2354C1.87121 17.2052 1.89957 17.1523 1.96438 17.0674C2.10442 16.8838 2.32735 16.6587 2.69483 16.2912L1.66917 15.2656ZM2.69483 18.2607C2.32735 17.8933 2.10442 17.6681 1.96438 17.4846C1.89957 17.3997 1.87121 17.3468 1.85861 17.3166C1.84843 17.2922 1.8483 17.2825 1.8483 17.276H0.397793C0.397793 17.7176 0.585479 18.0686 0.811192 18.3645C1.02414 18.6436 1.33068 18.9479 1.66917 19.2864L2.69483 18.2607ZM12.1522 5.80816L15.8962 9.55211L16.9219 8.52645L13.1779 4.78249L12.1522 5.80816ZM19.1682 6.28008L15.4243 2.53612L14.3986 3.56178L18.1426 7.30574L19.1682 6.28008ZM19.1682 9.55211C19.3357 9.38469 19.4872 9.23371 19.6045 9.09919C19.7262 8.95975 19.8464 8.79929 19.9294 8.59888L18.5893 8.0438C18.5917 8.038 18.5844 8.06206 18.5114 8.14572C18.4342 8.2343 18.324 8.34499 18.1426 8.52645L19.1682 9.55211ZM18.1426 7.30574C18.324 7.48721 18.4342 7.5979 18.5114 7.68647C18.5844 7.77013 18.5917 7.79419 18.5893 7.7884L19.9294 7.23331C19.8464 7.03291 19.7262 6.87245 19.6045 6.73301C19.4872 6.59848 19.3357 6.44751 19.1682 6.28008L18.1426 7.30574ZM19.9294 8.59888C20.1105 8.1617 20.1105 7.67049 19.9294 7.23331L18.5893 7.7884C18.6232 7.87016 18.6232 7.96203 18.5893 8.0438L19.9294 8.59888ZM15.8962 9.55211C16.0636 9.71954 16.2146 9.87108 16.3491 9.98841C16.4886 10.11 16.649 10.2303 16.8494 10.3133L17.4045 8.97318C17.4103 8.97558 17.3863 8.96828 17.3026 8.89531C17.214 8.81805 17.1033 8.70791 16.9219 8.52645L15.8962 9.55211ZM18.1426 8.52645C17.9611 8.70791 17.8504 8.81805 17.7618 8.89531C17.6782 8.96828 17.6541 8.97558 17.6599 8.97318L18.215 10.3133C18.4154 10.2303 18.5759 10.11 18.7153 9.98841C18.8498 9.87108 19.0008 9.71954 19.1682 9.55211L18.1426 8.52645ZM16.8494 10.3133C17.2866 10.4944 17.7778 10.4944 18.215 10.3133L17.6599 8.97318C17.5782 9.00705 17.4863 9.00705 17.4045 8.97318L16.8494 10.3133ZM12.1522 2.53612C11.9848 2.70355 11.8333 2.85453 11.7159 2.98905C11.5943 3.12849 11.4741 3.28895 11.3911 3.48935L12.7312 4.04444C12.7288 4.05024 12.7361 4.02617 12.809 3.94252C12.8863 3.85394 12.9964 3.74325 13.1779 3.56178L12.1522 2.53612ZM13.1779 4.78249C12.9964 4.60103 12.8863 4.49034 12.809 4.40176C12.7361 4.31811 12.7288 4.29404 12.7312 4.29984L11.3911 4.85493C11.4741 5.05533 11.5943 5.21579 11.7159 5.35523C11.8333 5.48975 11.9848 5.64073 12.1522 5.80816L13.1779 4.78249ZM11.3911 3.48935C11.21 3.92653 11.21 4.41775 11.3911 4.85493L12.7312 4.29984C12.6973 4.21808 12.6973 4.1262 12.7312 4.04444L11.3911 3.48935ZM13.1779 3.56178C13.3594 3.38032 13.4701 3.27019 13.5586 3.19292C13.6423 3.11995 13.6664 3.11265 13.6606 3.11505L13.1055 1.77496C12.9051 1.85797 12.7446 1.97819 12.6052 2.09982C12.4707 2.21716 12.3197 2.36869 12.1522 2.53612L13.1779 3.56178ZM15.4243 2.53612C15.2569 2.36869 15.1059 2.21716 14.9714 2.09982C14.8319 1.97819 14.6715 1.85797 14.471 1.77496L13.916 3.11505C13.9102 3.11265 13.9342 3.11995 14.0179 3.19292C14.1065 3.27019 14.2172 3.38032 14.3986 3.56178L15.4243 2.53612ZM13.6606 3.11505C13.7423 3.08118 13.8342 3.08118 13.916 3.11505L14.471 1.77496C14.0339 1.59387 13.5427 1.59387 13.1055 1.77496L13.6606 3.11505ZM15.1474 1.78733L14.3986 2.53612L15.4243 3.56178L16.1731 2.81299L15.1474 1.78733ZM19.1682 7.30574L19.917 6.55695L18.8914 5.53129L18.1426 6.28008L19.1682 7.30574ZM19.917 2.53612L19.1682 1.78733L18.1426 2.81299L18.8914 3.56179L19.917 2.53612ZM19.917 6.55695C20.2555 6.21846 20.5621 5.9141 20.775 5.635C21.0007 5.33917 21.1884 4.98818 21.1884 4.54654L19.7379 4.54654C19.7379 4.553 19.7378 4.56273 19.7276 4.58716C19.715 4.61737 19.6866 4.67021 19.6218 4.75515C19.4818 4.93869 19.2588 5.1638 18.8914 5.53129L19.917 6.55695ZM18.8914 3.56178C19.2588 3.92927 19.4818 4.15438 19.6218 4.33792C19.6866 4.42286 19.715 4.47571 19.7276 4.50591C19.7378 4.53034 19.7379 4.54007 19.7379 4.54654L21.1884 4.54654C21.1884 4.10489 21.0007 3.7539 20.775 3.45807C20.5621 3.17897 20.2555 2.87461 19.917 2.53612L18.8914 3.56178ZM16.1731 2.81299C16.5406 2.44551 16.7657 2.22258 16.9492 2.08254C17.0342 2.01773 17.087 1.98937 17.1172 1.97678C17.1416 1.96659 17.1514 1.96646 17.1578 1.96646V0.515957C16.7162 0.515957 16.3652 0.703643 16.0694 0.929356C15.7903 1.1423 15.4859 1.44884 15.1474 1.78733L16.1731 2.81299ZM19.1682 1.78733C18.8298 1.44884 18.5254 1.1423 18.2463 0.929357C17.9505 0.703643 17.5995 0.515957 17.1578 0.515957V1.96646C17.1643 1.96646 17.174 1.96659 17.1984 1.97678C17.2287 1.98937 17.2815 2.01773 17.3664 2.08254C17.55 2.22258 17.7751 2.44551 18.1426 2.81299L19.1682 1.78733Z" fill="url(#paint2_linear_2052_1868)"/>
</g>
<defs>
<linearGradient id="paint0_linear_2052_1868" x1="10.7928" y1="7.04346" x2="10.7928" y2="14.7795" gradientUnits="userSpaceOnUse">
<stop stop-color="#28EF95"/>
<stop offset="1" stop-color="#25D7DC"/>
</linearGradient>
<linearGradient id="paint1_linear_2052_1868" x1="10.7931" y1="1.24121" x2="10.7931" y2="20.5813" gradientUnits="userSpaceOnUse">
<stop stop-color="#28EF95"/>
<stop offset="1" stop-color="#25D7DC"/>
</linearGradient>
<linearGradient id="paint2_linear_2052_1868" x1="10.7931" y1="1.24121" x2="10.7931" y2="20.5813" gradientUnits="userSpaceOnUse">
<stop stop-color="#28EF95"/>
<stop offset="1" stop-color="#25D7DC"/>
</linearGradient>
</defs>
</svg>
