<svg width="358" height="199" viewBox="0 0 358 199" fill="none" xmlns="http://www.w3.org/2000/svg">
<path d="M343.465 92.9875C327.992 74.3046 300.375 66.3327 277.714 74.9958C259.507 81.9539 246.139 97.8617 228.705 106.581C209.797 116.033 186.47 116.104 167.506 106.76C152.407 99.3158 140.6 86.6591 129.756 73.7823C118.912 60.9055 108.498 47.3785 95.032 37.2972C81.5664 27.2159 62.2025 28.9209 45.8083 32.7302C29.414 36.5395 -3.85571 54.8486 0.870045 118.163C0.870045 118.163 8.3606 196.76 107.084 198.035H295.306C319.37 194.998 341.35 183.494 351.585 161.498C361.82 139.503 358.932 111.67 343.465 92.9875Z" fill="url(#paint0_linear_1040_37416)"/>
<path d="M290.305 0.194824H68.097C66.2606 0.19889 64.5007 0.930903 63.2032 2.23041C61.9056 3.52991 61.1762 5.29088 61.1748 7.1273V164.05C61.1748 165.887 61.9036 167.65 63.2014 168.95C64.4991 170.251 66.2597 170.984 68.097 170.988H153.381C153.381 170.988 158.803 187.761 141.989 196.439H221.723C221.723 196.439 202.753 189.932 207.617 170.988H290.305C292.144 170.986 293.907 170.255 295.207 168.954C296.507 167.653 297.238 165.889 297.238 164.05V7.1273C297.238 5.28869 296.507 3.52539 295.207 2.2253C293.907 0.925207 292.144 0.194824 290.305 0.194824Z" fill="#091817"/>
<path d="M182.166 154.481C185.186 158.802 180.456 163.533 176.134 160.512C175.99 160.41 175.866 160.284 175.766 160.139C172.75 155.822 177.476 151.097 181.792 154.112C181.936 154.214 182.062 154.338 182.166 154.481Z" fill="black"/>
<path d="M69.9662 3.06714H288.426C289.744 3.06714 291.007 3.59038 291.938 4.52176C292.87 5.45314 293.393 6.71637 293.393 8.03354V142.28H65.0254V8.03354C65.0254 6.72079 65.5451 5.46143 66.471 4.53078C67.3968 3.60013 68.6535 3.07391 69.9662 3.06714Z" fill="#FBFBFB"/>
<path d="M69.6897 3.06714H289.543C290.561 3.0712 291.536 3.47864 292.255 4.20026C292.974 4.92188 293.377 5.89889 293.377 6.91738V14.6332H65.0254V7.75194C65.0254 6.51299 65.5161 5.32449 66.3903 4.44651C67.2644 3.56852 68.4508 3.07255 69.6897 3.06714Z" fill="#EBEBEB"/>
<path d="M72.2754 10.6958C73.1605 10.6958 73.878 9.97835 73.878 9.09329C73.878 8.20822 73.1605 7.49072 72.2754 7.49072C71.3903 7.49072 70.6729 8.20822 70.6729 9.09329C70.6729 9.97835 71.3903 10.6958 72.2754 10.6958Z" fill="#E0E0E0"/>
<path d="M77.0567 10.6958C77.9417 10.6958 78.6592 9.97835 78.6592 9.09329C78.6592 8.20822 77.9417 7.49072 77.0567 7.49072C76.1716 7.49072 75.4541 8.20822 75.4541 9.09329C75.4541 9.97835 76.1716 10.6958 77.0567 10.6958Z" fill="#E0E0E0"/>
<path d="M81.6035 10.6958C82.4886 10.6958 83.2061 9.97835 83.2061 9.09329C83.2061 8.20822 82.4886 7.49072 81.6035 7.49072C80.7185 7.49072 80.001 8.20822 80.001 9.09329C80.001 9.97835 80.7185 10.6958 81.6035 10.6958Z" fill="#E0E0E0"/>
<path d="M250.564 171.008C250.564 171.085 218.948 171.141 179.959 171.141C140.97 171.141 109.344 171.085 109.344 171.008C109.344 170.932 140.955 170.875 179.959 170.875C218.963 170.875 250.564 170.937 250.564 171.008Z" fill="#FBFBFB"/>
<path d="M214.473 34.2223L179.657 21.3967L145.174 34.0534C140.771 36.1833 136.91 37.4633 136.91 41.6668V62.6281C136.838 77.298 140.766 91.7102 148.271 104.315C154.702 115.021 164.655 126.044 180.015 133.054C194.111 128.359 204.632 115.84 211.063 105.129C218.569 92.5264 222.497 78.1157 222.424 63.4473V44.5954C222.399 38.5948 219.301 35.6662 214.473 34.2223Z" fill="#2AEF9A"/>
<g opacity="0.8">
<path d="M214.473 34.2223L179.657 21.3967L145.174 34.0534C140.771 36.1833 136.91 37.4633 136.91 41.6668V62.6281C136.838 77.298 140.766 91.7102 148.271 104.315C154.702 115.021 164.655 126.044 180.015 133.054C194.111 128.359 204.632 115.84 211.063 105.129C218.569 92.5264 222.497 78.1157 222.424 63.4473V44.5954C222.399 38.5948 219.301 35.6662 214.473 34.2223Z" fill="#FBFBFB"/>
</g>
<path d="M200.915 87.245H194.515V52.429C194.515 48.4863 192.949 44.7051 190.161 41.9172C187.373 39.1293 183.592 37.5631 179.649 37.5631C175.707 37.5631 171.925 39.1293 169.138 41.9172C166.35 44.7051 164.783 48.4863 164.783 52.429V87.245H158.383V52.429C158.34 49.6086 158.857 46.8076 159.906 44.1892C160.956 41.5707 162.515 39.1871 164.494 37.1771C166.473 35.1671 168.832 33.5708 171.434 32.4813C174.036 31.3917 176.829 30.8306 179.649 30.8306C182.47 30.8306 185.263 31.3917 187.865 32.4813C190.466 33.5708 192.826 35.1671 194.805 37.1771C196.784 39.1871 198.343 41.5707 199.392 44.1892C200.441 46.8076 200.959 49.6086 200.915 52.429V87.245Z" fill="#2AEF9A"/>
<g opacity="0.4">
<path d="M200.915 87.245H194.515V52.429C194.515 48.4863 192.949 44.7051 190.161 41.9172C187.373 39.1293 183.592 37.5631 179.649 37.5631C175.707 37.5631 171.925 39.1293 169.138 41.9172C166.35 44.7051 164.783 48.4863 164.783 52.429V87.245H158.383V52.429C158.34 49.6086 158.857 46.8076 159.906 44.1892C160.956 41.5707 162.515 39.1871 164.494 37.1771C166.473 35.1671 168.832 33.5708 171.434 32.4813C174.036 31.3917 176.829 30.8306 179.649 30.8306C182.47 30.8306 185.263 31.3917 187.865 32.4813C190.466 33.5708 192.826 35.1671 194.805 37.1771C196.784 39.1871 198.343 41.5707 199.392 44.1892C200.441 46.8076 200.959 49.6086 200.915 52.429V87.245Z" fill="black"/>
</g>
<path d="M205.334 71.752H153.965C152.322 71.752 150.99 73.0838 150.99 74.7267V105.549C150.99 107.192 152.322 108.524 153.965 108.524H205.334C206.977 108.524 208.309 107.192 208.309 105.549V74.7267C208.309 73.0838 206.977 71.752 205.334 71.752Z" fill="#2AEF9A"/>
<g opacity="0.5">
<path d="M184.439 85.3505C184.44 84.4588 184.191 83.5846 183.722 82.8263C183.253 82.0679 182.582 81.4555 181.784 81.0579C180.985 80.6603 180.092 80.4933 179.204 80.5757C178.316 80.658 177.469 80.9865 176.758 81.5241C176.046 82.0617 175.499 82.7871 175.177 83.6188C174.855 84.4505 174.772 85.3554 174.937 86.2318C175.101 87.1083 175.507 87.9214 176.109 88.5797C176.71 89.2381 177.483 89.7156 178.341 89.9585V97.1265H180.958V89.9585C181.961 89.6758 182.845 89.0723 183.474 88.2403C184.102 87.4082 184.441 86.3934 184.439 85.3505Z" fill="black"/>
</g>
<path d="M154.046 105.037C153.913 105.037 153.811 98.893 153.811 91.341C153.811 83.789 153.913 77.645 154.046 77.645C154.179 77.645 154.287 83.789 154.287 91.341C154.287 98.893 154.179 105.037 154.046 105.037Z" fill="#FAFAFA"/>
<path d="M175.899 91.4897C175.899 91.4897 175.673 91.418 175.336 91.1722C174.862 90.8183 174.446 90.3935 174.102 89.9127C173.504 89.124 173.088 88.213 172.884 87.2448C172.68 86.2766 172.692 85.2752 172.92 84.3123C173.148 83.3494 173.586 82.4489 174.203 81.6751C174.819 80.9013 175.6 80.2735 176.488 79.8365C177.019 79.5624 177.588 79.3708 178.177 79.2682C178.387 79.2107 178.607 79.1984 178.822 79.2324C178.822 79.3245 177.916 79.4116 176.672 80.1335C175.86 80.5825 175.151 81.1964 174.59 81.9357C174.029 82.675 173.629 83.5233 173.415 84.4264C173.202 85.3294 173.179 86.2671 173.349 87.1793C173.52 88.0915 173.879 88.958 174.404 89.7233C174.853 90.3518 175.353 90.9426 175.899 91.4897Z" fill="#FAFAFA"/>
<path d="M222.721 124.918C222.721 124.918 222.859 124.724 223.136 124.36L223.366 124.053C223.448 123.935 223.52 123.797 223.602 123.648C223.806 123.316 223.977 122.964 224.114 122.599C224.195 122.389 224.293 122.174 224.375 121.938C224.457 121.703 224.513 121.426 224.585 121.18C224.668 120.905 224.726 120.622 224.759 120.336C224.82 120.028 224.864 119.717 224.892 119.404C225.013 117.904 224.944 116.396 224.687 114.914C224.175 111.55 222.741 107.597 220.56 103.296C218.03 98.4472 215.065 93.8374 211.703 89.5235C207.654 84.2697 203.24 79.308 198.493 74.6755C193.071 69.339 187.277 64.3926 181.157 59.8736C177.916 57.4979 174.501 55.1888 170.917 53.0128C167.253 50.7801 163.45 48.786 159.53 47.0429C155.49 45.197 151.234 43.864 146.863 43.0749C144.632 42.6782 142.353 42.6212 140.105 42.9059C138.98 43.0747 137.883 43.3933 136.843 43.8531C135.796 44.3189 134.859 45.0008 134.094 45.8541C133.329 46.7073 132.753 47.7127 132.404 48.8041C132.064 49.8896 131.873 51.0159 131.836 52.1526C131.804 54.419 132.116 56.677 132.763 58.8496C134.043 63.1037 135.853 67.1803 138.149 70.984C140.326 74.6828 142.741 78.2367 145.378 81.6233C147.938 84.9513 150.631 88.0797 153.36 91.0237C158.547 96.5937 164.121 101.79 170.041 106.573C175.182 110.759 180.611 114.58 186.287 118.006C190.955 120.855 195.872 123.274 200.976 125.236C205.497 126.915 209.588 127.877 212.988 128.011C214.49 128.102 215.997 127.999 217.473 127.703C217.779 127.642 218.081 127.565 218.379 127.473C218.66 127.403 218.936 127.312 219.203 127.202L219.931 126.905C220.156 126.797 220.361 126.674 220.555 126.572C220.903 126.387 221.234 126.171 221.543 125.927C221.676 125.824 221.81 125.742 221.917 125.65L222.194 125.384L222.706 124.908L222.219 125.42L221.943 125.696C221.835 125.788 221.707 125.875 221.569 125.983C221.261 126.23 220.932 126.45 220.586 126.638C220.391 126.746 220.187 126.869 219.961 126.981L219.229 127.284C218.963 127.399 218.687 127.491 218.405 127.56C218.105 127.658 217.801 127.74 217.493 127.806C216.012 128.108 214.498 128.22 212.988 128.139C209.573 128.021 205.467 127.063 200.93 125.399C195.81 123.447 190.877 121.032 186.195 118.185C180.501 114.77 175.058 110.953 169.908 106.763C163.973 101.981 158.385 96.7853 153.186 91.2131C150.447 88.264 147.759 85.1305 145.184 81.7974C142.539 78.4037 140.115 74.843 137.929 71.1376C135.622 67.3139 133.802 63.2168 132.512 58.9417C131.861 56.7387 131.548 54.4495 131.585 52.1526C131.621 50.9895 131.818 49.8369 132.169 48.7273C132.524 47.6001 133.115 46.561 133.901 45.6785C134.687 44.7959 135.652 44.0901 136.731 43.6073C137.792 43.1343 138.914 42.8088 140.064 42.6397C142.339 42.3474 144.646 42.4043 146.904 42.8086C151.298 43.6004 155.574 44.9422 159.632 46.8022C163.552 48.5533 167.352 50.5595 171.009 52.808C174.593 54.9891 178.034 57.3033 181.249 59.6841C187.375 64.2187 193.174 69.1804 198.601 74.5321C203.345 79.175 207.756 84.1469 211.8 89.4109C215.16 93.7415 218.12 98.3685 220.642 103.235C222.813 107.551 224.226 111.524 224.738 114.898C224.99 116.39 225.051 117.907 224.917 119.414C224.89 119.729 224.846 120.041 224.784 120.351C224.744 120.638 224.682 120.923 224.6 121.201C224.523 121.467 224.451 121.713 224.385 121.964C224.318 122.215 224.195 122.414 224.114 122.624C223.969 122.992 223.787 123.343 223.571 123.674C223.484 123.822 223.412 123.961 223.33 124.078L223.09 124.38C222.849 124.739 222.721 124.918 222.721 124.918Z" fill="#2AEF9A"/>
<path d="M239.105 85.3557C239.105 85.3557 239.08 85.1201 239.044 84.6645C239.044 84.5484 239.034 84.4204 239.013 84.2805C239.013 84.1371 238.952 83.9886 238.921 83.8197C238.854 83.4321 238.751 83.0516 238.614 82.683C238.537 82.4731 238.465 82.2478 238.373 82.0174C238.281 81.787 238.143 81.5618 238.02 81.3109C237.891 81.0446 237.74 80.7894 237.569 80.548C237.401 80.3022 237.257 80.036 237.057 79.7698C236.151 78.5686 235.094 77.4881 233.914 76.5544C231.287 74.3938 227.591 72.3867 223.105 70.6306C217.988 68.6971 212.707 67.2302 207.326 66.2478C200.81 65.0254 194.216 64.2641 187.593 63.9694C179.992 63.6039 172.375 63.7749 164.799 64.4814C160.8 64.8603 156.714 65.4133 152.583 66.1864C148.362 66.9571 144.196 68.0004 140.11 69.3096C135.862 70.6206 131.794 72.4576 128.001 74.7778C126.085 75.9705 124.359 77.4445 122.881 79.1502C122.153 80.0231 121.547 80.9912 121.079 82.0277C120.609 83.0742 120.366 84.2085 120.366 85.3557C120.366 86.5029 120.609 87.6371 121.079 88.6837C121.548 89.7192 122.155 90.687 122.881 91.5611C124.36 93.2593 126.086 94.7247 128.001 95.908C131.792 98.2305 135.858 100.069 140.105 101.381C144.19 102.692 148.357 103.735 152.577 104.504C156.709 105.283 160.795 105.831 164.794 106.209C172.37 106.919 179.987 107.09 187.588 106.721C194.211 106.427 200.805 105.666 207.321 104.443C212.702 103.462 217.984 101.995 223.1 100.06C227.591 98.3041 231.292 96.2971 233.909 94.1365C235.09 93.2041 236.147 92.1234 237.052 90.9211C237.237 90.6711 237.408 90.4113 237.564 90.1429C237.729 89.9063 237.872 89.6563 237.994 89.3954L238.348 88.6888C238.44 88.4584 238.512 88.2331 238.588 88.0232C238.726 87.6546 238.829 87.2741 238.896 86.8866C238.926 86.7227 238.967 86.5691 238.988 86.4309C239.008 86.2926 238.988 86.1595 239.018 86.0469C239.054 85.5861 239.08 85.3557 239.08 85.3557C239.08 85.3557 239.08 85.5912 239.044 86.0469C239.044 86.1646 239.044 86.2926 239.044 86.436C239.044 86.5794 238.988 86.7278 238.957 86.8968C238.893 87.2857 238.794 87.6679 238.66 88.0386C238.583 88.2536 238.517 88.4789 238.419 88.7144L238.076 89.4261C237.954 89.6882 237.81 89.9399 237.646 90.1787C237.477 90.4296 237.334 90.7163 237.134 90.9723C236.229 92.1855 235.171 93.2766 233.985 94.2184C231.359 96.3995 227.657 98.427 223.167 100.199C218.043 102.144 212.752 103.621 207.361 104.612C200.838 105.849 194.236 106.624 187.603 106.931C179.992 107.312 172.363 107.153 164.773 106.455C160.769 106.076 156.679 105.528 152.531 104.755C148.301 103.985 144.124 102.941 140.028 101.632C135.76 100.314 131.673 98.467 127.863 96.1333C125.914 94.9267 124.157 93.4338 122.651 91.7045C121.905 90.8099 121.285 89.8177 120.808 88.7554C120.327 87.6784 120.078 86.5121 120.078 85.3326C120.078 84.1531 120.327 82.9869 120.808 81.9099C121.287 80.8502 121.907 79.86 122.651 78.9659C124.156 77.2355 125.915 75.7439 127.868 74.5422C131.675 72.2084 135.761 70.3626 140.028 69.0485C144.124 67.7351 148.3 66.6902 152.531 65.9202C156.673 65.147 160.764 64.5992 164.768 64.2203C172.358 63.5244 179.987 63.367 187.598 63.7493C194.233 64.057 200.837 64.8355 207.361 66.0789C212.75 67.0741 218.036 68.5564 223.157 70.5077C227.652 72.2843 231.349 74.3067 233.98 76.4878C235.161 77.4334 236.216 78.526 237.119 79.739C237.304 79.9925 237.475 80.2557 237.631 80.5275C237.792 80.7677 237.936 81.0192 238.061 81.2801L238.404 81.997C238.501 82.2274 238.568 82.4578 238.645 82.6677C238.779 83.0399 238.879 83.4238 238.942 83.8146C238.972 83.9784 239.008 84.132 239.029 84.2754C239.049 84.4187 239.029 84.5467 239.029 84.6594C239.105 85.1202 239.105 85.3557 239.105 85.3557Z" fill="#2AEF9A"/>
<path d="M217.376 36.1064C217.376 36.1064 217.171 35.9835 216.792 35.7326L216.469 35.5227C216.346 35.451 216.198 35.3896 216.049 35.3128C215.702 35.1301 215.339 34.9793 214.964 34.8622C214.749 34.7957 214.529 34.7086 214.288 34.6421L213.505 34.468C213.223 34.4063 212.937 34.3669 212.65 34.3502C212.348 34.3502 212.041 34.2734 211.713 34.2837C210.207 34.2659 208.706 34.4379 207.243 34.7957C203.93 35.5432 200.075 37.2379 195.943 39.7109C191.279 42.5681 186.883 45.843 182.81 49.4952C177.852 53.895 173.21 58.6394 168.92 63.693C163.97 69.4724 159.434 75.5941 155.347 82.0123C153.196 85.4069 151.128 88.9704 149.203 92.7131C147.228 96.5233 145.501 100.457 144.032 104.489C142.472 108.648 141.44 112.986 140.96 117.402C140.717 119.655 140.819 121.932 141.262 124.155C141.504 125.266 141.896 126.34 142.429 127.345C142.967 128.354 143.712 129.239 144.615 129.941C145.519 130.642 146.56 131.145 147.672 131.415C148.778 131.681 149.915 131.795 151.051 131.753C153.314 131.628 155.544 131.16 157.666 130.366C161.823 128.793 165.767 126.707 169.406 124.155C172.945 121.728 176.323 119.074 179.518 116.209C182.662 113.418 185.601 110.526 188.35 107.597C193.541 102.039 198.331 96.1211 202.686 89.8869C206.517 84.4771 209.961 78.8037 212.993 72.909C215.512 68.0542 217.587 62.9819 219.193 57.7538C220.555 53.1458 221.241 48.9832 221.134 45.5835C221.121 44.0785 220.915 42.5814 220.519 41.1291C220.436 40.827 220.337 40.5296 220.222 40.2382C220.136 39.9639 220.028 39.6968 219.9 39.4395C219.777 39.1938 219.664 38.9275 219.557 38.733C219.449 38.5384 219.296 38.3182 219.178 38.1339C218.97 37.7985 218.732 37.4831 218.466 37.1918C218.359 37.0638 218.261 36.941 218.164 36.8386L217.877 36.5774C217.539 36.2702 217.365 36.1064 217.365 36.1064L217.877 36.557L218.164 36.813C218.266 36.9154 218.364 37.0382 218.476 37.1662C218.749 37.4528 218.991 37.7668 219.198 38.1032C219.321 38.2926 219.459 38.4872 219.587 38.7022L219.936 39.4088C220.071 39.6668 220.184 39.9357 220.273 40.2126C220.366 40.4994 220.504 40.7861 220.576 41.1086C220.98 42.5651 221.196 44.0671 221.221 45.5784C221.338 48.9934 220.668 53.156 219.316 57.7947C217.722 63.0384 215.656 68.1264 213.141 72.996C210.121 78.9089 206.688 84.6012 202.865 90.0302C198.511 96.278 193.721 102.21 188.529 107.781C185.775 110.72 182.836 113.618 179.687 116.419C176.484 119.291 173.098 121.952 169.55 124.385C165.902 126.952 161.945 129.048 157.774 130.627C155.615 131.439 153.344 131.914 151.041 132.035C149.878 132.075 148.716 131.958 147.585 131.687C146.438 131.407 145.363 130.889 144.43 130.165C143.498 129.442 142.729 128.53 142.173 127.488C141.628 126.461 141.227 125.363 140.98 124.227C140.533 121.979 140.43 119.676 140.673 117.397C141.163 112.957 142.207 108.597 143.781 104.417C145.256 100.384 146.99 96.4509 148.972 92.6414C150.897 88.8936 152.971 85.325 155.116 81.9253C159.215 75.5021 163.762 69.3769 168.725 63.5957C173.031 58.541 177.688 53.7966 182.662 49.3979C186.758 45.7317 191.182 42.448 195.877 39.588C200.034 37.1202 203.9 35.4357 207.233 34.6984C208.701 34.3339 210.21 34.1618 211.723 34.1864C212.038 34.1938 212.353 34.2178 212.665 34.2581C212.955 34.2764 213.242 34.3175 213.525 34.381L214.304 34.5448C214.544 34.6165 214.764 34.6984 214.979 34.7701C215.355 34.8899 215.719 35.0459 216.065 35.236C216.218 35.3128 216.362 35.3794 216.485 35.451L216.802 35.6661C217.186 35.9682 217.376 36.1064 217.376 36.1064Z" fill="#2AEF9A"/>
<path d="M118.002 113.654C119.22 113.654 120.208 112.666 120.208 111.447C120.208 110.228 119.22 109.24 118.002 109.24C116.783 109.24 115.795 110.228 115.795 111.447C115.795 112.666 116.783 113.654 118.002 113.654Z" fill="#2AEF9A"/>
<path d="M244.113 41.4826C244.112 41.9188 243.981 42.345 243.738 42.7072C243.495 43.0694 243.15 43.3514 242.747 43.5177C242.344 43.6839 241.9 43.7269 241.472 43.6412C241.045 43.5554 240.652 43.3449 240.344 43.036C240.036 42.7272 239.826 42.334 239.741 41.9061C239.657 41.4782 239.701 41.0347 239.868 40.6318C240.035 40.2289 240.318 39.8846 240.68 39.6423C241.043 39.4 241.47 39.2708 241.906 39.2708C242.196 39.2708 242.484 39.328 242.752 39.4392C243.02 39.5504 243.263 39.7134 243.468 39.9189C243.673 40.1243 243.836 40.3682 243.946 40.6365C244.057 40.9049 244.113 41.1924 244.113 41.4826Z" fill="#2AEF9A"/>
<path d="M133.499 117.146C133.499 117.258 133.466 117.367 133.404 117.459C133.342 117.552 133.254 117.624 133.151 117.667C133.047 117.709 132.934 117.72 132.824 117.698C132.715 117.676 132.615 117.622 132.536 117.542C132.458 117.463 132.404 117.362 132.383 117.253C132.362 117.143 132.374 117.03 132.417 116.927C132.461 116.824 132.534 116.736 132.627 116.675C132.72 116.614 132.83 116.582 132.941 116.583C133.09 116.584 133.232 116.644 133.336 116.75C133.441 116.855 133.499 116.998 133.499 117.146Z" fill="#2AEF9A"/>
<path d="M145.476 55.2861C145.476 55.3975 145.443 55.5064 145.381 55.599C145.319 55.6916 145.231 55.7638 145.128 55.8064C145.025 55.8491 144.912 55.8602 144.803 55.8385C144.694 55.8167 144.593 55.7631 144.515 55.6843C144.436 55.6056 144.382 55.5052 144.36 55.396C144.339 55.2867 144.35 55.1735 144.392 55.0706C144.435 54.9677 144.507 54.8797 144.6 54.8178C144.693 54.7559 144.801 54.7229 144.913 54.7229C145.062 54.7229 145.205 54.7822 145.311 54.8879C145.417 54.9935 145.476 55.1367 145.476 55.2861Z" fill="#2AEF9A"/>
<path d="M233.023 85.3557C233.023 85.4673 232.99 85.5764 232.928 85.6691C232.865 85.7619 232.777 85.834 232.674 85.8765C232.571 85.919 232.457 85.9298 232.348 85.9077C232.239 85.8855 232.138 85.8314 232.06 85.7521C231.981 85.6728 231.928 85.572 231.907 85.4624C231.886 85.3528 231.897 85.2394 231.941 85.1366C231.984 85.0338 232.057 84.9462 232.151 84.8849C232.244 84.8237 232.353 84.7915 232.465 84.7925C232.539 84.7925 232.612 84.8071 232.68 84.8355C232.748 84.8638 232.809 84.9054 232.861 84.9578C232.913 85.0101 232.954 85.0723 232.982 85.1406C233.01 85.2089 233.024 85.282 233.023 85.3557Z" fill="#2AEF9A"/>
<path d="M240.821 59.1977C240.822 59.3096 240.789 59.4192 240.728 59.5126C240.666 59.606 240.579 59.6789 240.475 59.7222C240.372 59.7655 240.259 59.777 240.149 59.7555C240.039 59.7339 239.938 59.6802 239.859 59.6011C239.78 59.522 239.726 59.4212 239.705 59.3115C239.683 59.2017 239.695 59.0881 239.738 58.985C239.781 58.8819 239.854 58.7939 239.948 58.7324C240.041 58.671 240.151 58.6387 240.263 58.6397C240.411 58.6397 240.553 58.6985 240.657 58.8031C240.762 58.9078 240.821 59.0497 240.821 59.1977Z" fill="#2AEF9A"/>
<defs>
<linearGradient id="paint0_linear_1040_37416" x1="179.01" y1="29.748" x2="179.01" y2="198.035" gradientUnits="userSpaceOnUse">
<stop stop-color="#2ADCCE"/>
<stop offset="1" stop-color="#2AEF9A"/>
</linearGradient>
</defs>
</svg>
