<svg width="289" height="289" viewBox="0 0 289 289" fill="none" xmlns="http://www.w3.org/2000/svg">
<path d="M115.778 126.507C152.242 108.805 227.556 28.6625 261.05 92.5912C289.078 146.086 227.087 196.269 189.973 214.628C141.695 238.519 70.732 229.085 32.5317 183.925C16.1036 164.479 10.1761 136.987 38.8347 131.871C48.5038 130.141 64.9185 136.444 75.8482 135.894C89.8556 135.19 103.575 132.428 115.778 126.507Z" fill="#2AEE9F"/>
<path opacity="0.9" d="M115.778 126.507C152.242 108.805 227.556 28.6625 261.05 92.5912C289.078 146.086 227.087 196.269 189.973 214.628C141.695 238.519 70.732 229.085 32.5317 183.925C16.1036 164.479 10.1761 136.987 38.8347 131.871C48.5038 130.141 64.9185 136.444 75.8482 135.894C89.8556 135.19 103.575 132.428 115.778 126.507Z" fill="#FBFBFB"/>
<path d="M136.302 88.8295C134.82 92.4302 126.096 92.1821 116.957 88.4137C107.818 84.6453 101.602 78.6709 103.084 75.0701C103.432 74.2387 104.425 71.1207 105.417 70.6915C108.823 69.2499 115.307 72.4886 122.328 75.3853C128.866 78.0674 136.342 79.8175 137.502 83.3646C138.199 85.5237 136.724 87.8035 136.302 88.8295Z" fill="#2AEE9F"/>
<path opacity="0.2" d="M137.503 83.3645C138.059 86.1875 136.832 87.5419 136.302 88.8294C135.773 90.1168 134.224 90.9617 132.058 91.2567C131.787 91.3027 131.514 91.3341 131.24 91.3506C129.579 91.4482 127.912 91.3605 126.271 91.0891C126.036 91.0891 125.802 91.0153 125.56 90.9751C123.634 90.6292 121.735 90.1406 119.881 89.5133L119.21 89.2853C118.466 89.0238 117.702 88.7355 116.937 88.4203C116.173 88.1052 115.449 87.7498 114.731 87.4347L114.114 87.1396C112.424 86.3038 110.795 85.3492 109.24 84.2831L108.69 83.8942C107.332 82.9345 106.088 81.8232 104.982 80.5818C104.814 80.3941 104.66 80.213 104.512 80.0253C103.071 78.2014 102.501 76.458 103.071 75.07C103.446 74.1782 104.251 71.1273 105.404 70.6847C106.823 70.2851 108.324 70.2851 109.742 70.6847L110.413 70.8457C113.766 71.7039 117.99 73.615 122.302 75.3919C127.384 77.4906 133.399 79.6699 136.349 82.1844C136.525 82.3321 136.693 82.4888 136.852 82.6538C137.088 82.873 137.305 83.1106 137.503 83.3645Z" fill="black"/>
<g opacity="0.2">
<path d="M110.748 70.2691L110.439 70.8324L104.995 80.5752C104.827 80.3875 104.673 80.2064 104.525 80.0187L109.756 70.6714L110.165 69.9473L110.748 70.2691Z" fill="black"/>
</g>
<g opacity="0.2">
<path d="M114.865 74.2455L109.253 84.3035L108.703 83.9146L114.282 73.937L114.865 74.2455Z" fill="black"/>
</g>
<g opacity="0.2">
<path d="M125.184 80.0119L119.88 89.5133L119.21 89.2854L124.574 79.6565L125.184 80.0119Z" fill="black"/>
</g>
<g opacity="0.2">
<path d="M120.384 77.3297L114.745 87.4347L114.128 87.1397L119.801 76.9744L120.384 77.3297Z" fill="black"/>
</g>
<g opacity="0.2">
<path d="M131.441 81.8492L126.271 91.0891C126.037 91.0891 125.802 91.0154 125.561 90.9751L130.851 81.5139L131.441 81.8492Z" fill="black"/>
</g>
<path d="M137.462 85.6914C135.98 89.2922 127.364 89.1514 118.218 85.3763C109.072 81.6012 102.863 75.6334 104.351 72.0327C105.84 68.4319 114.449 68.5794 123.596 72.3478C132.742 76.1162 138.944 82.0705 137.462 85.6914Z" fill="#2AEE9F"/>
<path opacity="0.2" d="M134.351 84.3839C133.305 86.9252 126.586 86.5699 119.351 83.586C112.116 80.6021 107.101 76.1162 108.147 73.5749C109.193 71.0336 115.912 71.389 123.153 74.3728C130.395 77.3567 135.404 81.8426 134.351 84.3839Z" fill="#FBFBFB"/>
<path d="M182.515 56.2817C184.902 59.3594 180.356 66.8091 172.531 72.864C164.706 78.9189 156.438 81.3328 154.058 78.2283C153.508 77.5175 151.282 75.1371 151.416 74.024C151.865 70.3562 157.893 66.3464 163.901 61.6929C169.494 57.3613 174.717 51.7422 178.371 52.4999C180.591 52.9894 181.838 55.41 182.515 56.2817Z" fill="#2AEE9F"/>
<path opacity="0.2" d="M178.372 52.5269C181.101 53.4522 181.664 55.209 182.516 56.2818C183.368 57.3547 183.334 59.145 182.516 61.1767C182.422 61.4248 182.308 61.6729 182.187 61.9277C181.453 63.4184 180.553 64.8219 179.505 66.1119C179.364 66.2996 179.21 66.4807 179.056 66.6684C177.795 68.1724 176.423 69.5799 174.952 70.8794L174.436 71.3286C173.839 71.8449 173.209 72.3612 172.559 72.8641C171.908 73.367 171.258 73.8431 170.601 74.2924C170.42 74.4265 170.225 74.5539 170.044 74.6813C168.477 75.7322 166.837 76.6689 165.136 77.4841C164.928 77.5914 164.727 77.6786 164.532 77.7724C163.021 78.4717 161.435 78.9981 159.805 79.3415C159.564 79.3951 159.329 79.4354 159.094 79.4689C156.794 79.8109 154.997 79.4689 154.079 78.2552C153.489 77.4908 151.242 75.2714 151.437 74.0577C151.787 72.623 152.533 71.3152 153.589 70.2826C153.737 70.115 153.898 69.9473 154.065 69.773C156.486 67.2652 160.234 64.5763 163.922 61.7266C168.274 58.3739 173.155 54.2233 176.796 52.9225C177.016 52.8417 177.24 52.7724 177.467 52.7146C177.764 52.63 178.066 52.5673 178.372 52.5269Z" fill="black"/>
<g opacity="0.2">
<path d="M153.71 69.2231L154.045 69.773L159.785 79.3415C159.543 79.3951 159.309 79.4354 159.074 79.4689L153.569 70.2692L153.14 69.5986L153.71 69.2231Z" fill="black"/>
</g>
<g opacity="0.2">
<path d="M159.201 67.6272L165.115 77.484C164.907 77.5913 164.706 77.6785 164.511 77.7724L158.624 67.9692L159.201 67.6272Z" fill="black"/>
</g>
<g opacity="0.2">
<path d="M169.333 61.5522L174.931 70.8861L174.415 71.3353L168.756 61.8942L169.333 61.5522Z" fill="black"/>
</g>
<g opacity="0.2">
<path d="M164.625 64.375L170.58 74.2922C170.399 74.4263 170.204 74.5537 170.023 74.6811L164.042 64.717L164.625 64.375Z" fill="black"/>
</g>
<g opacity="0.2">
<path d="M174.041 57.0261L179.485 66.1119C179.344 66.2996 179.19 66.4806 179.036 66.6684L173.464 57.3748L174.041 57.0261Z" fill="black"/>
</g>
<path d="M170.501 70.2326C178.321 64.1755 182.728 56.7709 180.345 53.6939C177.962 50.6168 169.69 53.0326 161.87 59.0896C154.05 65.1467 149.643 72.5513 152.026 75.6284C154.41 78.7054 162.681 76.2896 170.501 70.2326Z" fill="#2AEE9F"/>
<path opacity="0.2" d="M169.532 68.3662C175.721 63.5723 179.372 57.9226 177.688 55.7473C176.003 53.572 169.619 55.6948 163.43 60.4888C157.241 65.2827 153.59 70.9324 155.274 73.1077C156.959 75.283 163.343 73.1602 169.532 68.3662Z" fill="#FBFBFB"/>
<path d="M150.148 41.8653C149.384 46.2774 139.487 48.1414 128.275 46.1298C117.064 44.1182 108.609 38.935 109.393 34.5229C109.574 33.497 109.889 29.7621 110.942 29.0178C114.422 26.5637 122.509 28.6155 131.119 30.1443C139.165 31.5726 147.969 31.6866 150.148 35.3946C151.469 37.6744 150.37 40.6047 150.148 41.8653Z" fill="#2AEE9F"/>
<path opacity="0.2" d="M150.149 35.4014C151.49 38.4456 150.424 40.2628 150.149 41.8452C149.874 43.4277 148.339 44.7487 145.978 45.6203C145.69 45.7343 145.388 45.8282 145.08 45.9221C143.234 46.441 141.336 46.7536 139.421 46.8541C139.146 46.8541 138.877 46.8541 138.596 46.9011C136.34 46.984 134.081 46.9011 131.837 46.653L131.052 46.5524C130.147 46.4384 129.215 46.3043 128.283 46.1367C127.351 45.969 126.446 45.7813 125.554 45.5734C125.299 45.5198 125.044 45.4527 124.789 45.3924C122.683 44.8722 120.617 44.1999 118.607 43.3808C118.359 43.2869 118.124 43.1796 117.89 43.0857C116.126 42.335 114.453 41.3881 112.901 40.2628C112.666 40.0952 112.452 39.9275 112.23 39.7532C110.152 38.0567 109.086 36.2329 109.387 34.5364C109.588 33.4368 109.749 29.8427 110.93 29.0313C112.11 28.22 113.799 27.9652 115.811 27.9585H116.616C120.639 28.0926 125.822 29.2124 131.113 30.1511C137.349 31.2642 144.651 32.2365 148.58 34.342C148.81 34.4641 149.034 34.5984 149.251 34.7443C149.567 34.9396 149.867 35.1593 150.149 35.4014Z" fill="black"/>
<g opacity="0.2">
<path d="M116.837 27.2745L116.622 27.9786L112.894 40.2761C112.659 40.1085 112.445 39.9409 112.224 39.7665L115.804 27.9719L116.086 27.0532L116.837 27.2745Z" fill="black"/>
</g>
<g opacity="0.2">
<path d="M122.442 30.7076L118.6 43.374C118.352 43.2801 118.117 43.1728 117.883 43.0789L121.705 30.4729L122.442 30.7076Z" fill="black"/>
</g>
<g opacity="0.2">
<path d="M135.47 34.6772L131.829 46.673L131.045 46.5725L134.726 34.4492L135.47 34.6772Z" fill="black"/>
</g>
<g opacity="0.2">
<path d="M129.416 32.84L125.547 45.5802C125.292 45.5265 125.037 45.4595 124.782 45.3991L128.671 32.5986L129.416 32.84Z" fill="black"/>
</g>
<g opacity="0.2">
<path d="M142.961 35.2003L139.414 46.8743C139.139 46.8743 138.87 46.8743 138.589 46.9212L142.216 34.979L142.961 35.2003Z" fill="black"/>
</g>
<path d="M150.671 38.0132C151.456 33.6016 143.001 28.4074 131.786 26.4117C120.571 24.416 110.843 26.3746 110.058 30.7862C109.273 35.1978 117.728 40.392 128.943 42.3877C140.158 44.3834 149.886 42.4248 150.671 38.0132Z" fill="#2AEE9F"/>
<path opacity="0.2" d="M146.854 37.3386C147.409 34.2213 140.664 30.4141 131.79 28.8349C122.916 27.2558 115.272 28.5027 114.717 31.62C114.163 34.7373 120.907 38.5446 129.781 40.1237C138.656 41.7029 146.299 40.456 146.854 37.3386Z" fill="#FBFBFB"/>
<path d="M208.687 154.508L139.682 158.531C137.245 158.675 134.853 159.256 132.622 160.248L57.6693 193.775C56.3542 194.353 55.2773 195.365 54.6183 196.641C53.9593 197.918 53.7581 199.381 54.0484 200.788L66.4332 259.36C66.6426 260.303 67.0648 261.185 67.6677 261.94C68.2706 262.695 69.0382 263.302 69.9117 263.715C70.7852 264.128 71.7415 264.336 72.7075 264.322C73.6736 264.309 74.6238 264.075 75.4854 263.638L149.465 226.705L217.779 224.418C218.62 224.396 219.446 224.194 220.203 223.828C220.96 223.461 221.63 222.937 222.168 222.291C222.707 221.646 223.102 220.893 223.327 220.082C223.551 219.272 223.601 218.423 223.472 217.592L214.333 161.509C213.857 158.612 211.657 154.421 208.687 154.508Z" fill="#2AEE9F"/>
<path opacity="0.1" d="M208.687 154.508L139.682 158.531C137.245 158.675 134.853 159.256 132.622 160.248L57.6693 193.775C56.3542 194.353 55.2773 195.365 54.6183 196.641C53.9593 197.918 53.7581 199.381 54.0484 200.788L66.4332 259.36C66.6426 260.303 67.0648 261.185 67.6677 261.94C68.2706 262.695 69.0382 263.302 69.9117 263.715C70.7852 264.128 71.7415 264.336 72.7075 264.322C73.6736 264.309 74.6238 264.075 75.4854 263.638L149.465 226.705L217.779 224.418C218.62 224.396 219.446 224.194 220.203 223.828C220.96 223.461 221.63 222.937 222.168 222.291C222.707 221.646 223.102 220.893 223.327 220.082C223.551 219.272 223.601 218.423 223.472 217.592L214.333 161.509C213.857 158.612 211.657 154.421 208.687 154.508Z" fill="black"/>
<path d="M70.1803 116.371L33.9678 149.752L98.9526 220.25L135.165 186.869L70.1803 116.371Z" fill="#2AEE9F"/>
<path d="M135.156 186.875L98.9405 220.254L33.9658 149.761L57.7295 127.855L70.1813 116.375L72.2533 118.628L135.156 186.875Z" fill="#087B2A"/>
<path d="M70.4128 120.681L38.46 150.135L99.2454 216.077L131.198 186.623L70.4128 120.681Z" stroke="#2AEE9F" stroke-miterlimit="10"/>
<path d="M92.0191 176.186C95.6841 172.808 95.2205 166.343 90.9837 161.747C86.7468 157.151 80.3411 156.163 76.6761 159.542C73.0111 162.92 73.4747 169.385 77.7115 173.981C81.9483 178.577 88.354 179.565 92.0191 176.186Z" fill="#2AEE9F"/>
<path opacity="0.1" d="M98.5583 191.642L85.6907 196.088L57.7295 127.855L70.1813 116.375L72.2533 118.628L98.5583 191.642Z" fill="black"/>
<path d="M101.065 88.7524L54.7637 105.541L87.4463 195.678L133.747 178.89L101.065 88.7524Z" fill="#2AEE9F"/>
<path d="M101.065 88.7524L54.7637 105.541L87.4463 195.678L133.747 178.89L101.065 88.7524Z" fill="#2AEE9D"/>
<path d="M99.6095 92.817L58.7549 107.63L89.3256 191.943L130.18 177.13L99.6095 92.817Z" stroke="#087B2A" stroke-miterlimit="10"/>
<path d="M98.0899 152.354C102.776 150.655 104.847 144.514 102.717 138.637C100.586 132.76 95.0596 129.374 90.3735 131.073C85.6875 132.772 83.616 138.913 85.7469 144.79C87.8777 150.667 93.4039 154.053 98.0899 152.354Z" fill="#087B2A"/>
<path d="M209.136 156.889L141.077 160.724C138.664 160.856 136.297 161.436 134.097 162.434L60.2441 195.773C58.9432 196.361 57.882 197.375 57.2358 198.648C56.5896 199.921 56.3971 201.376 56.6902 202.773L69.075 261.371C69.2745 262.309 69.6862 263.188 70.2785 263.941C70.8708 264.694 71.628 265.302 72.4918 265.717C73.3556 266.132 74.3031 266.344 75.2614 266.335C76.2197 266.327 77.1634 266.099 78.0199 265.669L150.907 228.944L218.282 226.812C219.116 226.785 219.935 226.581 220.684 226.213C221.433 225.845 222.095 225.322 222.625 224.678C223.156 224.034 223.543 223.284 223.761 222.478C223.978 221.672 224.022 220.83 223.888 220.006L214.722 163.929C214.246 161.006 212.073 156.808 209.136 156.889Z" fill="black"/>
<path opacity="0.2" d="M143.846 170.983L202.242 167.389" stroke="black" stroke-width="2" stroke-linecap="round" stroke-linejoin="round"/>
<path opacity="0.2" d="M136.853 172.492L147.521 221.495" stroke="black" stroke-width="2" stroke-linecap="round" stroke-linejoin="round"/>
<path opacity="0.2" d="M65.7227 216.734L73.246 254.425C73.246 254.425 79.0126 239.472 65.7227 216.734Z" fill="#FAFAFA"/>
<path opacity="0.2" d="M66.708 217.176C66.9695 217.847 133.533 189.282 133.533 189.282C133.714 195.758 132.095 202.158 128.856 207.769C125.617 213.38 120.886 217.983 115.188 221.066C95.152 232.297 66.708 217.176 66.708 217.176Z" fill="#FAFAFA"/>
<path d="M110.922 218.29C112.515 218.29 113.806 216.999 113.806 215.406C113.806 213.814 112.515 212.523 110.922 212.523C109.33 212.523 108.039 213.814 108.039 215.406C108.039 216.999 109.33 218.29 110.922 218.29Z" fill="#2AEE9F"/>
<path opacity="0.2" d="M133.566 189.282C133.566 189.282 141.821 201.707 139.822 222.869L133.566 189.282Z" fill="black"/>
<g opacity="0.2">
<path d="M62.5371 201.928L64.0726 201.251" stroke="#FAFAFA" stroke-linecap="round" stroke-linejoin="round"/>
<path d="M67.2578 199.843L129.416 172.365" stroke="#FAFAFA" stroke-linecap="round" stroke-linejoin="round" stroke-dasharray="5.2 5.2"/>
<path d="M131.012 171.661L132.541 170.983" stroke="#FAFAFA" stroke-linecap="round" stroke-linejoin="round"/>
</g>
<path opacity="0.2" d="M145.804 182L204.2 178.399" stroke="black" stroke-width="2" stroke-linecap="round" stroke-linejoin="round"/>
<path opacity="0.2" d="M148.433 195.739L206.829 192.139" stroke="black" stroke-width="2" stroke-linecap="round" stroke-linejoin="round"/>
<path d="M194.03 98.1367C194.03 98.1367 192.561 113.78 186.748 115.128C183.148 115.906 179.394 115.53 176.019 114.055L171.292 110.421L168.985 118.467C168.985 118.467 171.507 121.894 176.77 119.52C176.77 119.52 186.158 123.651 191.348 119.52C196.538 115.39 198.2 104.058 198.2 104.058L194.03 98.1367Z" fill="#B97964"/>
<path d="M198.704 90.5596C198.704 90.5596 194.647 83.6464 196.491 71.1141C198.335 58.5818 208.843 57.0329 212.899 57.9381C216.956 58.8433 220.275 62.7391 223.038 70.1552C225.8 77.5713 226.82 79.5025 231.426 78.2016C236.033 76.9008 248.29 72.8374 251.703 76.4515C252.685 77.4388 253.408 78.6526 253.809 79.9859C254.21 81.3191 254.277 82.7306 254.003 84.0956C254.003 84.0956 271.055 79.9517 269.58 95.1594C268.104 110.367 243.496 124.562 220.087 109.536C196.679 94.509 198.704 90.5596 198.704 90.5596Z" fill="black"/>
<path d="M198.515 127.365C198.515 127.365 193.882 167.215 194.036 185.903C194.19 204.59 200.829 248.631 200.829 248.631H209.016C209.016 248.631 207.936 213.415 208.09 201.365C208.245 189.316 210.404 169.381 210.404 169.381C210.404 169.381 213.025 187.297 216.117 193.627C219.208 199.957 236.353 222.36 248.249 229.313L253.807 224.21C253.807 224.21 241.449 208.922 236.816 201.352C232.183 193.781 228.019 191.636 226.315 177.555C224.612 163.473 227.556 140.95 222.614 127.358L198.515 127.365Z" fill="#808B91"/>
<path opacity="0.2" d="M210.405 169.381L206.844 144.122C206.844 144.122 204.035 159.303 209.567 177.843L210.405 169.381Z" fill="black"/>
<path d="M202.512 250.864L202.787 258.689L208.278 259.145L208.553 258.414V250.314L202.512 250.864Z" fill="#B97964"/>
<path d="M199.904 247.887L200.407 250.817L209.835 251.045L210.432 247.525L199.904 247.887Z" fill="black"/>
<path d="M245.668 229.856L254.405 221.716L256.329 224.78L248.826 231.646L245.668 229.856Z" fill="#2AEE9F"/>
<path d="M249.878 229.856L255.645 234.711L259.346 230.359L254.612 225.464L249.878 229.856Z" fill="#B97964"/>
<path d="M260.466 230.024L263.953 232.17C264.112 232.268 264.247 232.399 264.35 232.555C264.453 232.711 264.52 232.887 264.548 233.072C264.575 233.256 264.562 233.444 264.509 233.623C264.456 233.802 264.365 233.968 264.241 234.107C261.713 236.964 255.256 244.219 254.612 244.729C253.814 245.399 252.849 244.273 252.601 243.267C252.601 243.267 254.431 240.84 254.612 239.284C254.688 238.083 254.688 236.878 254.612 235.677C254.598 235.376 254.699 235.081 254.894 234.852L258.79 230.279C258.991 230.04 259.272 229.883 259.58 229.836C259.888 229.79 260.203 229.856 260.466 230.024Z" fill="#263238"/>
<path d="M209.62 259.36L210.344 263.383C210.377 263.567 210.37 263.756 210.322 263.937C210.275 264.118 210.188 264.286 210.069 264.43C209.949 264.573 209.8 264.689 209.631 264.769C209.462 264.849 209.277 264.891 209.09 264.892C205.275 264.892 195.566 264.932 194.754 264.798C193.742 264.63 193.923 263.182 194.52 262.337C194.52 262.337 197.544 262.082 198.811 261.163C199.753 260.424 200.649 259.627 201.493 258.776C201.709 258.565 201.996 258.443 202.298 258.434L208.299 258.294C208.611 258.282 208.916 258.384 209.159 258.58C209.401 258.776 209.565 259.053 209.62 259.36Z" fill="#263238"/>
<path d="M223.493 105.264L231.861 99.3906C231.861 99.3906 229.635 90.4859 226.336 90.0434C223.037 89.6008 206.663 86.4829 196.249 90.0434C196.249 90.0434 192.508 91.1095 191.354 101.617L195.807 103.038C195.807 103.038 197.403 122.712 198.388 125.743H222.152C222.152 125.743 222.42 108.825 223.493 105.264Z" fill="#FBFBFB"/>
<path d="M225.297 103.997C225.297 103.997 228.468 113.049 229.032 117.917C229.032 117.917 221.495 114.913 219.55 113.539L218.075 108.241L213.086 105.807L211.604 109.831L215.769 114.994C215.769 114.994 227.121 125.615 232.874 123.188C238.627 120.76 230.601 100.296 230.601 100.296L225.297 103.997Z" fill="#B97964"/>
<path d="M204.008 64.3618C204.008 64.3618 201.104 70.1552 201.326 74.8691C201.547 79.583 203.927 81.5074 208.453 82.1712C208.453 82.1712 210.384 88.206 205.315 88.8162C204.926 88.8631 204.792 90.3987 204.819 90.6468C204.953 91.6257 205.925 92.1622 206.831 92.3901C207.784 92.6013 208.757 92.7092 209.734 92.712C210.759 92.7473 211.78 92.549 212.717 92.1319C213.654 91.7149 214.485 91.0901 215.145 90.3048C215.253 90.1774 216.272 88.8765 216.272 88.8765C216.272 88.8765 213.851 87.6763 214.703 79.8176C215.858 79.0656 216.745 77.967 217.237 76.6795C217.7 76.4341 218.109 76.0989 218.44 75.6937C218.772 75.2884 219.019 74.8212 219.168 74.3193C219.531 72.7502 218.143 70.5777 215.608 72.7502C215.608 72.7502 210.834 70.3363 209.023 61.8809C207.681 63.2522 205.912 64.127 204.008 64.3618Z" fill="#B97964"/>
<path d="M205.369 73.5817L205.778 70.4839L203.585 72.9112C203.811 73.152 204.09 73.3376 204.399 73.4539C204.708 73.5701 205.04 73.6139 205.369 73.5817Z" fill="#A24E3F"/>
<path d="M206.643 75.8482C206.643 75.8482 208.956 76.2036 210.069 74.7217" stroke="#222221" stroke-width="0.75" stroke-linecap="round" stroke-linejoin="round"/>
<path d="M208.956 66.1455C209.481 65.9962 210.037 65.9916 210.565 66.132C211.092 66.2725 211.572 66.5528 211.953 66.9435" stroke="#222221" stroke-linecap="round" stroke-linejoin="round"/>
<path d="M204.952 65.4748C204.952 65.4748 203.611 65.267 203.015 66.0247" stroke="#222221" stroke-linecap="round" stroke-linejoin="round"/>
<path d="M209.888 70.2224C209.828 70.6918 209.526 71.0337 209.217 70.9935C208.909 70.9533 208.701 70.5442 208.761 70.0749C208.822 69.6055 209.124 69.2635 209.432 69.3038C209.74 69.344 209.948 69.753 209.888 70.2224Z" fill="#222221"/>
<path d="M204.535 69.1844C204.596 68.718 204.392 68.3071 204.079 68.2665C203.767 68.226 203.465 68.5712 203.405 69.0376C203.344 69.504 203.548 69.9149 203.86 69.9555C204.172 69.996 204.474 69.6508 204.535 69.1844Z" fill="#222221"/>
<path d="M209.438 69.3037L208.379 68.8411C208.393 68.957 208.437 69.0673 208.507 69.1611C208.576 69.2548 208.669 69.3287 208.776 69.3754C208.883 69.4222 209.001 69.4402 209.117 69.4276C209.233 69.415 209.344 69.3723 209.438 69.3037Z" fill="#222221"/>
<path d="M204.182 68.3113L203.122 67.8486C203.136 67.9646 203.18 68.0749 203.25 68.1686C203.319 68.2624 203.412 68.3363 203.519 68.383C203.626 68.4298 203.744 68.4477 203.86 68.4352C203.976 68.4226 204.087 68.3799 204.182 68.3113Z" fill="#222221"/>
<path d="M197.557 124.696V127.493L223.305 127.707L222.614 124.381L197.557 124.696Z" fill="#2AEE9F"/>
<path d="M197.557 124.696V127.493L223.305 127.707L222.614 124.381L197.557 124.696Z" fill="black"/>
<path d="M197.871 111.125L183.71 160.382C183.239 162.032 182.285 163.502 180.97 164.604C179.655 165.706 178.04 166.389 176.334 166.564C175.248 166.668 174.151 166.568 173.102 166.269L146.032 158.485C143.844 157.853 141.996 156.38 140.892 154.387C139.788 152.395 139.52 150.047 140.145 147.857L154.314 98.5858C154.946 96.4005 156.42 94.5551 158.41 93.4541C160.401 92.3531 162.747 92.0862 164.935 92.7119L192.024 100.49C194.208 101.128 196.049 102.606 197.145 104.599C198.241 106.593 198.502 108.939 197.871 111.125Z" fill="#2AEE9E"/>
<path opacity="0.2" d="M197.871 111.125L183.71 160.382C183.239 162.032 182.285 163.502 180.97 164.604C179.655 165.706 178.04 166.389 176.334 166.564C175.248 166.668 174.151 166.568 173.102 166.269L146.032 158.485C143.844 157.853 141.996 156.38 140.892 154.387C139.788 152.395 139.52 150.047 140.145 147.857L154.314 98.5858C154.946 96.4005 156.42 94.5551 158.41 93.4541C160.401 92.3531 162.747 92.0862 164.935 92.7119L192.024 100.49C194.208 101.128 196.049 102.606 197.145 104.599C198.241 106.593 198.502 108.939 197.871 111.125Z" fill="black"/>
<path d="M195.518 111.708L181.356 160.972C180.998 162.226 180.358 163.382 179.486 164.351C178.613 165.32 177.53 166.077 176.32 166.565C175.234 166.668 174.138 166.568 173.088 166.27L146.032 158.485C143.844 157.853 141.996 156.38 140.892 154.388C139.788 152.395 139.52 150.047 140.145 147.857L154.314 98.5858C154.672 97.3335 155.312 96.1798 156.185 95.2129C157.058 94.246 158.14 93.4914 159.349 93.007C160.435 92.8964 161.533 92.9966 162.581 93.302L189.617 101.114C191.801 101.741 193.648 103.208 194.754 105.193C195.86 107.179 196.134 109.521 195.518 111.708Z" fill="#2AEE9E"/>
<path d="M195.518 111.708L181.356 160.972C180.998 162.226 180.358 163.382 179.486 164.351C178.613 165.32 177.53 166.077 176.32 166.565C175.234 166.668 174.138 166.568 173.088 166.27L146.032 158.485C143.844 157.853 141.996 156.38 140.892 154.388C139.788 152.395 139.52 150.047 140.145 147.857L154.314 98.5858C154.672 97.3335 155.312 96.1798 156.185 95.2129C157.058 94.246 158.14 93.4914 159.349 93.007C160.435 92.8964 161.533 92.9966 162.581 93.302L189.617 101.114C191.801 101.741 193.648 103.208 194.754 105.193C195.86 107.179 196.134 109.521 195.518 111.708Z" fill="#2AEE9D"/>
<path d="M157.446 115.897L154.548 115.081L144.118 152.087L147.016 152.904L157.446 115.897Z" fill="#FAFAFA"/>
<path d="M151.175 154.079L148.278 153.241L158.705 116.248L161.595 117.079L151.175 154.079Z" fill="#FAFAFA"/>
<path d="M155.386 155.286L152.489 154.455L162.916 117.461L165.813 118.293L155.386 155.286Z" fill="#FAFAFA"/>
<path opacity="0.5" d="M182.676 123.141L179.778 122.324L169.348 159.331L172.246 160.147L182.676 123.141Z" fill="black"/>
<path d="M182.308 112.68L180.899 117.703L179.183 117.22C178.351 116.984 177.647 116.428 177.225 115.674C176.803 114.92 176.697 114.029 176.93 113.197L177.869 109.844L181.335 110.836C181.709 110.952 182.021 111.211 182.203 111.557C182.385 111.903 182.423 112.307 182.308 112.68Z" fill="#FAFAFA"/>
<path d="M181.484 110.22L178.018 109.227L179.057 105.553C179.173 105.14 179.369 104.755 179.634 104.419C179.899 104.082 180.228 103.801 180.602 103.592C180.975 103.383 181.386 103.249 181.812 103.199C182.237 103.149 182.668 103.183 183.08 103.3L184.864 103.802L183.308 109.214C183.256 109.401 183.168 109.576 183.048 109.728C182.928 109.88 182.778 110.007 182.608 110.101C182.438 110.195 182.251 110.253 182.058 110.274C181.865 110.294 181.67 110.276 181.484 110.22Z" fill="#FAFAFA"/>
<path d="M184.769 111.842L188.256 112.841L187.331 116.12C187.216 116.533 187.021 116.92 186.756 117.257C186.492 117.595 186.163 117.876 185.789 118.086C185.415 118.295 185.003 118.428 184.577 118.478C184.151 118.527 183.72 118.492 183.307 118.373L181.497 117.864L182.939 112.848C182.992 112.661 183.082 112.487 183.203 112.335C183.324 112.183 183.474 112.057 183.644 111.963C183.814 111.869 184.001 111.811 184.195 111.79C184.388 111.769 184.583 111.787 184.769 111.842Z" fill="#FAFAFA"/>
<path d="M189.49 108.49L188.437 112.218L184.95 111.219C184.577 111.109 184.262 110.857 184.073 110.517C183.885 110.177 183.838 109.776 183.944 109.401L185.5 103.99L187.237 104.48C187.648 104.595 188.032 104.79 188.368 105.054C188.704 105.318 188.984 105.646 189.194 106.018C189.403 106.39 189.537 106.8 189.587 107.224C189.638 107.648 189.605 108.078 189.49 108.49Z" fill="#FAFAFA"/>
</svg>
