<svg width="78" height="96" viewBox="0 0 78 96" fill="none" xmlns="http://www.w3.org/2000/svg">
<g id="Logo">
<g id="Vector">
<path d="M39.117 1.74651C40.5546 4.39902 41.5677 7.84865 42.1428 12.0404C42.7315 16.3972 42.7726 20.8363 42.2386 22.9666C41.6362 25.3992 40.1439 28.9725 38.8158 31.199C38.4325 31.8312 38.1176 32.4084 38.1176 32.4909C38.1176 32.5596 38.0354 32.6971 37.9259 32.7795C37.7616 32.9169 37.6247 32.807 37.1866 32.1473C35.3246 29.3986 33.6817 24.231 33.3257 20.0117C33.1066 17.4142 33.5858 13.4285 34.5579 9.77275C35.4615 6.36434 37.7616 -0.0951385 38.0491 0.00106812C38.1176 0.0148087 38.5968 0.798195 39.117 1.74651ZM10.8038 25.9077C13.5968 26.4025 19.0595 27.9005 20.8805 28.6564C23.1806 29.6185 26.4938 31.7075 28.2326 33.2743C29.3005 34.2501 31.0393 36.2841 31.9155 37.6035C33.3668 39.775 33.8596 40.8058 34.2567 42.5512C34.421 43.3071 34.2978 45.6573 34.0239 46.7155C33.5584 48.5159 32.6411 50.1651 32.2441 49.9178C31.7512 49.6017 29.5059 46.0833 28.1368 43.4445C27.5343 42.3038 26.9319 41.5204 25.823 40.3935C24.2074 38.7717 22.7014 37.5348 20.8668 36.2841C18.95 34.9785 17.8273 34.5112 15.4314 34.0302C14.6236 33.8653 13.8569 33.6728 13.7474 33.6179C13.6379 33.5629 13.1176 33.4667 12.611 33.4117L11.68 33.3155L12.2277 34.2226C12.5289 34.7036 12.9259 35.4183 13.1176 35.7756C13.5968 36.7514 16.5267 41.0806 17.4577 42.2076C18.3339 43.2796 20.1685 45.1075 21.6198 46.3444C23.8788 48.2685 26.4391 49.9865 29.6839 51.7457C31.268 52.6019 31.2989 52.6248 31.8555 53.0373C31.8618 53.0419 31.8681 53.0466 31.8744 53.0513C32.4768 53.5186 32.9423 54.4531 33.2709 55.8687C33.5174 56.9132 33.4489 57.8616 33.0519 58.6449C32.6274 59.4558 32.0113 59.4833 29.8071 58.8236C28.835 58.535 27.6302 58.1089 27.0962 57.8753C26.6174 57.6476 25.8718 57.3152 25.3719 57.0922C25.3286 57.0729 25.2872 57.0545 25.2479 57.0369C24.4128 56.6659 22.5371 55.7313 19.9084 54.3432C18.8679 53.8072 16.5404 52.2954 14.5278 50.8661C11.6526 48.8183 8.65429 45.7947 7.12088 43.4033C5.29996 40.5446 3.95823 37.686 3.09569 34.7861C2.05517 31.309 1.00095 25.839 1.34323 25.6054C1.42537 25.5504 3.21891 25.5229 5.32734 25.5504C8.44892 25.6054 9.46206 25.6741 10.8038 25.9077ZM75.2616 25.894C75.5765 26.0314 75.6313 26.1276 75.6313 26.6224C75.6313 28.1892 74.8509 31.8862 73.9609 34.5112C73.1258 36.9988 71.6745 40.1598 70.3328 42.4413C68.0464 46.2895 64.6647 49.3955 58.8186 52.9826C56.9703 54.1096 54.1636 55.5801 52.151 56.4734C50.0973 57.3805 48.5502 58.0677 47.674 58.48C45.7435 59.3871 44.9495 59.607 44.347 59.3733C44.2238 59.3184 43.9089 59.0023 43.6488 58.6587C43.2518 58.1364 43.1833 57.9303 43.1833 57.2981C43.1833 56.2123 43.6625 55.2915 44.8673 54.1233C45.4013 53.5873 46.0995 52.9688 46.4007 52.7352C46.7019 52.5016 47.0168 52.2679 47.0853 52.2129C47.1674 52.1442 47.5645 51.8281 47.9752 51.4845C48.3859 51.1409 49.0431 50.6462 49.4128 50.385C52.7397 48.1036 60.2972 41.0394 61.858 38.7717C63.2956 36.6689 63.4735 36.4216 63.8295 36.023C64.9522 34.7998 65.8969 33.4255 65.7326 33.2605C65.7052 33.2193 65.2534 33.2605 64.7331 33.343C63.8706 33.4667 63.0628 33.6454 60.4341 34.2638C58.2572 34.7723 56.6827 35.5832 54.5606 37.2874C51.5212 39.72 48.4133 43.3071 46.2364 46.9079C45.0453 48.8595 44.5387 49.5055 44.2512 49.3955C43.8679 49.2443 43.1696 47.4989 42.8958 46.0008C42.6083 44.3928 42.5672 43.046 42.7863 41.974C42.9916 40.9569 43.9774 39.0191 45.0727 37.4661C46.3596 35.6382 49.3169 32.7108 51.1926 31.3914C55.5464 28.3678 61.5568 26.3338 67.8958 25.784C69.7715 25.6329 74.7824 25.7016 75.2616 25.894ZM76.4527 62.6306C77.0141 62.713 77.5343 62.823 77.6028 62.8917C77.7808 63.0704 75.9872 70.272 75.289 72.1686C74.2621 74.9036 71.4965 79.1504 68.9089 81.9128C67.1975 83.7545 63.1997 87.0117 60.1603 89.0457C58.49 90.1727 54.1225 92.4542 51.0557 93.8148C47.6055 95.3403 45.0179 95.945 44.2101 95.409C43.6625 95.0517 43.2791 94.1446 43.2107 93.0314C43.1833 92.4954 43.1833 91.9044 43.2244 91.7257C43.4297 90.9149 45.0864 89.4443 47.7014 87.7538C50.6586 85.8572 54.5059 83.0673 56.2583 81.528C57.9834 80.03 62.214 75.7694 63.5694 74.1614C65.4724 71.9075 66.732 70.3132 66.732 70.1483C66.732 69.8322 64.0896 70.1483 60.7764 70.8767C57.7233 71.5502 54.232 73.4193 51.6444 75.7694C50.467 76.8277 48.6871 78.8892 47.6603 80.3598C45.278 83.7957 43.2654 86.2558 43.0327 86.0222C42.8136 85.8023 42.3344 81.2256 42.3208 79.1091C42.3071 76.9789 42.3071 76.9789 42.7315 76.0855C42.9779 75.5908 43.594 74.7112 44.1006 74.134C45.2917 72.7871 48.6734 69.5711 49.7824 68.7327C54.3142 65.3106 61.5568 63.0154 69.4703 62.4794C71.4144 62.3557 74.9193 62.4244 76.4527 62.6306ZM10.0097 62.7543C13.2408 62.9054 15.0891 63.1666 16.9374 63.7301C19.0595 64.376 22.3317 65.8603 23.605 66.7399C23.7967 66.8773 24.4401 67.3034 25.0426 67.702C26.7403 68.8289 29.191 70.8492 30.4369 72.1824C32.6001 74.4638 33.887 76.6903 34.1472 78.5594C34.4484 80.7309 33.9829 85.5136 33.4215 85.871C33.1477 86.0496 33.1066 86.0222 32.1072 84.8814C31.1214 83.7545 30.122 82.3114 28.2189 79.3153C26.9456 77.2812 25.8503 75.9619 24.1526 74.3813C21.8936 72.2786 19.2101 70.6843 16.8279 70.0246C15.9243 69.7772 15.2397 69.7223 13.0354 69.6673C11.5431 69.6261 10.3246 69.6261 10.3246 69.6673C10.3246 69.8735 13.7748 74.5463 15.1713 76.223C18.772 80.5797 24.6318 85.4037 30.9297 89.1969C32.203 89.9666 32.4084 90.1315 32.9971 90.8187C33.5721 91.4784 33.7227 92.7703 33.3941 94.0759C33.0929 95.2029 32.956 95.4228 32.3399 95.7526C31.6964 96.0825 31.1762 96.0825 29.8892 95.7526C27.9588 95.2578 23.0847 92.9764 19.8399 91.0386C17.7315 89.7879 13.4188 86.6544 11.9812 85.3212C10.7353 84.1805 8.6269 81.8304 7.2441 80.0574C6.25834 78.793 4.13622 75.5633 3.42428 74.2577C2.4659 72.4985 1.22001 69.1725 0.275318 65.8741C-0.0532685 64.7608 -0.0669589 64.6234 0.124717 64.1973C0.699744 62.7955 3.20522 62.4382 10.0097 62.7543Z" fill="url(#paint0_linear_70_868)"/>
<path d="M39.117 1.74651C40.5546 4.39902 41.5677 7.84865 42.1428 12.0404C42.7315 16.3972 42.7726 20.8363 42.2386 22.9666C41.6362 25.3992 40.1439 28.9725 38.8158 31.199C38.4325 31.8312 38.1176 32.4084 38.1176 32.4909C38.1176 32.5596 38.0354 32.6971 37.9259 32.7795C37.7616 32.9169 37.6247 32.807 37.1866 32.1473C35.3246 29.3986 33.6817 24.231 33.3257 20.0117C33.1066 17.4142 33.5858 13.4285 34.5579 9.77275C35.4615 6.36434 37.7616 -0.0951385 38.0491 0.00106812C38.1176 0.0148087 38.5968 0.798195 39.117 1.74651Z" fill="url(#paint1_linear_70_868)"/>
<path d="M75.2616 25.894C75.5765 26.0314 75.6313 26.1276 75.6313 26.6224C75.6313 28.1892 74.8509 31.8862 73.9609 34.5112C73.1258 36.9988 71.6745 40.1598 70.3328 42.4413C68.0464 46.2895 64.6647 49.3955 58.8186 52.9826C56.9703 54.1096 54.1636 55.5801 52.151 56.4734C50.0973 57.3805 48.5502 58.0677 47.674 58.48C45.7435 59.3871 44.9495 59.607 44.347 59.3733C44.2238 59.3184 43.9089 59.0023 43.6488 58.6587C43.2518 58.1364 43.1833 57.9303 43.1833 57.2981C43.1833 56.2123 43.6625 55.2915 44.8673 54.1233C45.4013 53.5873 46.0995 52.9688 46.4007 52.7352C46.7019 52.5016 47.0168 52.2679 47.0853 52.2129C47.1674 52.1442 47.5645 51.8281 47.9752 51.4845C48.3859 51.1409 49.0431 50.6462 49.4128 50.385C52.7397 48.1036 60.2972 41.0394 61.858 38.7717C63.2956 36.6689 63.4735 36.4216 63.8295 36.023C64.9522 34.7998 65.8969 33.4255 65.7326 33.2605C65.7052 33.2193 65.2534 33.2605 64.7331 33.343C63.8706 33.4667 63.0628 33.6454 60.4341 34.2638C58.2572 34.7723 56.6827 35.5832 54.5606 37.2874C51.5212 39.72 48.4133 43.3071 46.2364 46.9079C45.0453 48.8595 44.5387 49.5055 44.2512 49.3955C43.8679 49.2443 43.1696 47.4989 42.8958 46.0008C42.6083 44.3928 42.5672 43.046 42.7863 41.974C42.9916 40.9569 43.9774 39.0191 45.0727 37.4661C46.3596 35.6382 49.3169 32.7108 51.1926 31.3914C55.5464 28.3678 61.5568 26.3338 67.8958 25.784C69.7715 25.6329 74.7824 25.7016 75.2616 25.894Z" fill="url(#paint2_linear_70_868)"/>
<path d="M10.8038 25.9077C13.5968 26.4025 19.0595 27.9005 20.8805 28.6564C23.1806 29.6185 26.4938 31.7075 28.2326 33.2743C29.3005 34.2501 31.0393 36.2841 31.9155 37.6035C33.3668 39.775 33.8596 40.8058 34.2567 42.5512C34.421 43.3071 34.2978 45.6573 34.0239 46.7155C33.5584 48.5159 32.6411 50.1651 32.2441 49.9178C31.7512 49.6017 29.5059 46.0833 28.1368 43.4445C27.5343 42.3038 26.9319 41.5204 25.823 40.3935C24.2074 38.7717 22.7014 37.5348 20.8668 36.2841C18.95 34.9785 17.8273 34.5112 15.4314 34.0302C14.6236 33.8653 13.8569 33.6728 13.7474 33.6179C13.6379 33.5629 13.1176 33.4667 12.611 33.4117L11.68 33.3155L12.2277 34.2226C12.5289 34.7036 12.9259 35.4183 13.1176 35.7756C13.5968 36.7514 16.5267 41.0806 17.4577 42.2076C18.3339 43.2796 20.1685 45.1075 21.6198 46.3444C23.8788 48.2685 26.4391 49.9865 29.6839 51.7457C31.268 52.6019 31.2989 52.6248 31.8555 53.0373L31.8744 53.0513C32.4768 53.5186 32.9423 54.4531 33.2709 55.8687C33.5174 56.9132 33.4489 57.8616 33.0519 58.6449C32.6274 59.4558 32.0113 59.4833 29.8071 58.8236C28.835 58.535 27.6302 58.1089 27.0962 57.8753C26.6174 57.6476 25.8718 57.3152 25.3719 57.0922L25.2479 57.0369C24.4128 56.6659 22.5371 55.7313 19.9084 54.3432C18.8679 53.8072 16.5404 52.2954 14.5278 50.8661C11.6526 48.8183 8.65429 45.7947 7.12088 43.4033C5.29996 40.5446 3.95823 37.686 3.09569 34.7861C2.05517 31.309 1.00095 25.839 1.34323 25.6054C1.42537 25.5504 3.21891 25.5229 5.32734 25.5504C8.44892 25.6054 9.46206 25.6741 10.8038 25.9077Z" fill="url(#paint3_linear_70_868)"/>
<path d="M10.0097 62.7543C13.2408 62.9054 15.0891 63.1666 16.9374 63.7301C19.0595 64.376 22.3317 65.8603 23.605 66.7399C23.7967 66.8773 24.4401 67.3034 25.0426 67.702C26.7403 68.8289 29.191 70.8492 30.4369 72.1824C32.6001 74.4638 33.887 76.6903 34.1472 78.5594C34.4484 80.7309 33.9829 85.5136 33.4215 85.871C33.1477 86.0496 33.1066 86.0222 32.1072 84.8814C31.1214 83.7545 30.122 82.3114 28.2189 79.3153C26.9456 77.2812 25.8503 75.9619 24.1526 74.3813C21.8936 72.2786 19.2101 70.6843 16.8279 70.0246C15.9243 69.7772 15.2397 69.7223 13.0354 69.6673C11.5431 69.6261 10.3246 69.6261 10.3246 69.6673C10.3246 69.8735 13.7748 74.5463 15.1713 76.223C18.772 80.5797 24.6318 85.4037 30.9297 89.1969C32.203 89.9666 32.4084 90.1315 32.9971 90.8187C33.5721 91.4784 33.7227 92.7703 33.3941 94.0759C33.0929 95.2029 32.956 95.4228 32.3399 95.7526C31.6964 96.0825 31.1762 96.0825 29.8892 95.7526C27.9588 95.2578 23.0847 92.9764 19.8399 91.0386C17.7315 89.7879 13.4188 86.6544 11.9812 85.3212C10.7353 84.1805 8.6269 81.8304 7.2441 80.0574C6.25834 78.793 4.13622 75.5633 3.42428 74.2577C2.4659 72.4985 1.22001 69.1725 0.275318 65.8741C-0.0532685 64.7608 -0.0669589 64.6234 0.124717 64.1973C0.699744 62.7955 3.20522 62.4382 10.0097 62.7543Z" fill="url(#paint4_linear_70_868)"/>
<path d="M76.4527 62.6306C77.0141 62.713 77.5343 62.823 77.6028 62.8917C77.7808 63.0704 75.9872 70.272 75.289 72.1686C74.2621 74.9036 71.4965 79.1504 68.9089 81.9128C67.1975 83.7545 63.1997 87.0117 60.1603 89.0457C58.49 90.1727 54.1225 92.4542 51.0557 93.8148C47.6055 95.3403 45.0179 95.945 44.2101 95.409C43.6625 95.0517 43.2791 94.1446 43.2107 93.0314C43.1833 92.4954 43.1833 91.9044 43.2244 91.7257C43.4297 90.9149 45.0864 89.4443 47.7014 87.7538C50.6586 85.8572 54.5059 83.0673 56.2583 81.528C57.9834 80.03 62.214 75.7694 63.5694 74.1614C65.4724 71.9075 66.732 70.3132 66.732 70.1483C66.732 69.8322 64.0896 70.1483 60.7764 70.8767C57.7233 71.5502 54.232 73.4193 51.6444 75.7694C50.467 76.8277 48.6871 78.8892 47.6603 80.3598C45.278 83.7957 43.2654 86.2558 43.0327 86.0222C42.8136 85.8023 42.3344 81.2256 42.3208 79.1091C42.3071 76.9789 42.3071 76.9789 42.7315 76.0855C42.9779 75.5908 43.594 74.7112 44.1006 74.134C45.2917 72.7871 48.6734 69.5711 49.7824 68.7327C54.3142 65.3106 61.5568 63.0154 69.4703 62.4794C71.4144 62.3557 74.9193 62.4244 76.4527 62.6306Z" fill="url(#paint5_linear_70_868)"/>
</g>
</g>
<defs>
<linearGradient id="paint0_linear_70_868" x1="38.8076" y1="96" x2="38.8076" y2="0" gradientUnits="userSpaceOnUse">
<stop stop-color="#29F097"/>
<stop offset="1" stop-color="#29D4DC"/>
</linearGradient>
<linearGradient id="paint1_linear_70_868" x1="38.8076" y1="96" x2="38.8076" y2="0" gradientUnits="userSpaceOnUse">
<stop stop-color="#29F097"/>
<stop offset="1" stop-color="#29D4DC"/>
</linearGradient>
<linearGradient id="paint2_linear_70_868" x1="38.8076" y1="96" x2="38.8076" y2="0" gradientUnits="userSpaceOnUse">
<stop stop-color="#29F097"/>
<stop offset="1" stop-color="#29D4DC"/>
</linearGradient>
<linearGradient id="paint3_linear_70_868" x1="38.8076" y1="96" x2="38.8076" y2="0" gradientUnits="userSpaceOnUse">
<stop stop-color="#29F097"/>
<stop offset="1" stop-color="#29D4DC"/>
</linearGradient>
<linearGradient id="paint4_linear_70_868" x1="38.8076" y1="96" x2="38.8076" y2="0" gradientUnits="userSpaceOnUse">
<stop stop-color="#29F097"/>
<stop offset="1" stop-color="#29D4DC"/>
</linearGradient>
<linearGradient id="paint5_linear_70_868" x1="38.8076" y1="96" x2="38.8076" y2="0" gradientUnits="userSpaceOnUse">
<stop stop-color="#29F097"/>
<stop offset="1" stop-color="#29D4DC"/>
</linearGradient>
</defs>
</svg>
