<svg width="26" height="27" viewBox="0 0 26 27" fill="none" xmlns="http://www.w3.org/2000/svg">
<g clip-path="url(#clip0_297_153)">
<path d="M21.1088 18.8829H23.2197V20.9938H2.11084V18.8829H4.22173V11.4948C4.22173 9.25546 5.11132 7.10781 6.69479 5.52433C8.27827 3.94086 10.4259 3.05127 12.6653 3.05127C14.9047 3.05127 17.0523 3.94086 18.6358 5.52433C20.2193 7.10781 21.1088 9.25546 21.1088 11.4948V18.8829ZM18.998 18.8829V11.4948C18.998 9.8153 18.3308 8.20456 17.1432 7.01696C15.9556 5.82935 14.3448 5.16216 12.6653 5.16216C10.9858 5.16216 9.37502 5.82935 8.18742 7.01696C6.99981 8.20456 6.33262 9.8153 6.33262 11.4948V18.8829H18.998ZM9.49895 23.1047H15.8316V25.2156H9.49895V23.1047Z" fill="black"/>
</g>
<defs>
<clipPath id="clip0_297_153">
<rect width="25.3307" height="25.3307" fill="white" transform="translate(0 0.94043)"/>
</clipPath>
</defs>
</svg>
