<svg width="11" height="18" viewBox="0 0 11 18" fill="none" xmlns="http://www.w3.org/2000/svg">
<g id="Group">
<path id="Vector" fill-rule="evenodd" clip-rule="evenodd" d="M2.89717 4.7C2.34617 5.113 2.09717 5.608 2.09717 6.07C2.09717 6.533 2.34617 7.028 2.89717 7.442C3.44917 7.856 4.25717 8.142 5.19217 8.142C5.45738 8.142 5.71174 8.24736 5.89927 8.43489C6.08681 8.62243 6.19217 8.87678 6.19217 9.142C6.19217 9.40722 6.08681 9.66157 5.89927 9.84911C5.71174 10.0366 5.45738 10.142 5.19217 10.142C3.86617 10.142 2.62717 9.74 1.69717 9.042C0.767168 8.344 0.097168 7.304 0.097168 6.071C0.097168 4.837 0.767168 3.797 1.69717 3.099C2.62717 2.402 3.86717 2 5.19217 2C7.24517 2 9.18617 2.983 9.95817 4.62C10.0142 4.73885 10.0462 4.86756 10.0525 4.99879C10.0588 5.13003 10.0391 5.26121 9.99468 5.38485C9.95025 5.50849 9.8819 5.62217 9.79353 5.7194C9.70517 5.81662 9.59851 5.89549 9.47967 5.9515C9.36082 6.00751 9.23211 6.03956 9.10087 6.04583C8.96964 6.05209 8.83846 6.03245 8.71482 5.98801C8.59118 5.94358 8.4775 5.87523 8.38027 5.78686C8.28304 5.6985 8.20418 5.59185 8.14817 5.473C7.79817 4.726 6.70617 4 5.19317 4C4.25817 4 3.44917 4.286 2.89717 4.7Z" fill="#E9E9E9"/>
<path id="Vector_2" fill-rule="evenodd" clip-rule="evenodd" d="M7.157 13.583C7.708 13.17 7.956 12.675 7.956 12.213C7.956 11.75 7.708 11.254 7.156 10.841C6.605 10.427 5.796 10.141 4.862 10.141C4.59678 10.141 4.34243 10.0356 4.15489 9.84811C3.96736 9.66057 3.862 9.40622 3.862 9.141C3.862 8.87578 3.96736 8.62143 4.15489 8.43389C4.34243 8.24636 4.59678 8.141 4.862 8.141C6.188 8.141 7.427 8.543 8.357 9.241C9.287 9.939 9.956 10.979 9.956 12.212C9.956 13.445 9.287 14.486 8.356 15.183C7.426 15.881 6.188 16.283 4.862 16.283C2.809 16.283 0.867 15.3 0.096 13.662C-0.0171148 13.4221 -0.0303016 13.1471 0.0593408 12.8975C0.148983 12.6479 0.334111 12.4441 0.574 12.331C0.813888 12.2179 1.08889 12.2047 1.3385 12.2943C1.58811 12.384 1.79189 12.5691 1.905 12.809C2.257 13.557 3.349 14.283 4.862 14.283C5.797 14.283 6.605 13.997 7.157 13.583ZM5 0C5.26522 0 5.51957 0.105357 5.70711 0.292893C5.89464 0.48043 6 0.734784 6 1V2C6 2.26522 5.89464 2.51957 5.70711 2.70711C5.51957 2.89464 5.26522 3 5 3C4.73478 3 4.48043 2.89464 4.29289 2.70711C4.10536 2.51957 4 2.26522 4 2V1C4 0.734784 4.10536 0.48043 4.29289 0.292893C4.48043 0.105357 4.73478 0 5 0Z" fill="#E9E9E9"/>
<path id="Vector_3" fill-rule="evenodd" clip-rule="evenodd" d="M5 15C5.26522 15 5.51957 15.1054 5.70711 15.2929C5.89464 15.4804 6 15.7348 6 16V17C6 17.2652 5.89464 17.5196 5.70711 17.7071C5.51957 17.8946 5.26522 18 5 18C4.73478 18 4.48043 17.8946 4.29289 17.7071C4.10536 17.5196 4 17.2652 4 17V16C4 15.7348 4.10536 15.4804 4.29289 15.2929C4.48043 15.1054 4.73478 15 5 15Z" fill="#E9E9E9"/>
</g>
</svg>
