<svg width="26" height="26" viewBox="0 0 26 26" fill="none" xmlns="http://www.w3.org/2000/svg">
<g id="Group">
<path id="Vector" d="M2.11084 4.21456C2.11277 3.93738 2.22367 3.67208 2.41957 3.47598C2.61547 3.27988 2.88066 3.16871 3.15784 3.1665H22.1727C22.7511 3.1665 23.2197 3.63618 23.2197 4.21456V21.1165C23.2178 21.3936 23.1069 21.6589 22.911 21.855C22.7151 22.0511 22.4499 22.1623 22.1727 22.1645H3.15784C2.88006 22.1642 2.61376 22.0537 2.41744 21.8572C2.22111 21.6607 2.11084 21.3942 2.11084 21.1165V4.21456ZM4.22173 5.27739V20.0536H21.1088V5.27739H4.22173ZM6.33262 7.38828H12.6653V13.721H6.33262V7.38828ZM8.44351 9.49917V11.6101H10.5544V9.49917H8.44351ZM6.33262 15.8318H18.998V17.9427H6.33262V15.8318ZM14.7762 7.38828H18.998V9.49917H14.7762V7.38828ZM14.7762 11.6101H18.998V13.721H14.7762V11.6101Z" fill="black"/>
</g>
</svg>
