<svg width="33" height="33" viewBox="0 0 33 33" fill="none" xmlns="http://www.w3.org/2000/svg">
<rect width="33" height="33" rx="16.5" fill="#01FFCA"/>
<path d="M18.0553 10.4141C18.6142 9.80856 18.8936 9.5058 19.1906 9.32919C19.9071 8.90307 20.7893 8.88982 21.5178 9.29424C21.8197 9.46185 22.1077 9.75609 22.6838 10.3446C23.2598 10.9331 23.5479 11.2273 23.712 11.5357C24.1079 12.2798 24.0949 13.1811 23.6777 13.913C23.5049 14.2164 23.2085 14.5018 22.6157 15.0728L15.563 21.8657C14.4397 22.9477 13.878 23.4886 13.176 23.7628C12.4741 24.037 11.7024 24.0168 10.159 23.9764L9.94903 23.9709C9.47918 23.9587 9.24425 23.9525 9.10769 23.7975C8.97113 23.6426 8.98977 23.4032 9.02706 22.9246L9.04731 22.6647C9.15226 21.3177 9.20473 20.6441 9.46778 20.0387C9.73083 19.4332 10.1846 18.9416 11.0921 17.9584L18.0553 10.4141Z" stroke="white" stroke-width="1.125" stroke-linejoin="round"/>
<path d="M17.25 10.5L22.5 15.75" stroke="white" stroke-width="1.125" stroke-linejoin="round"/>
<path d="M18 24L24 24" stroke="white" stroke-width="1.125" stroke-linecap="round" stroke-linejoin="round"/>
</svg>
