<svg width="22" height="22" viewBox="0 0 22 22" fill="none" xmlns="http://www.w3.org/2000/svg">
<g id="Group">
<path id="Vector" d="M19.8239 5.28479L20.4737 4.91035L19.8239 5.28479ZM20.3175 6.14139L19.6676 6.51584V6.51584L20.3175 6.14139ZM20.3175 15.8741L19.6676 15.4997L20.3175 15.8741ZM19.8239 16.7307L20.4737 17.1052L19.8239 16.7307ZM19.0407 12.3827L18.4522 12.8476L18.4664 12.8656L18.4817 12.8827L19.0407 12.3827ZM16.3311 17.3113L16.5345 16.5894L16.5172 16.5845L16.4997 16.5805L16.3311 17.3113ZM14.9724 17.4808L14.6296 16.8137L14.6133 16.8221L14.5975 16.8312L14.9724 17.4808ZM18.9464 17.8316L18.6638 17.1369L18.6638 17.1369L18.9464 17.8316ZM17.5513 17.655L17.756 16.9335L17.7546 16.9331L17.5513 17.655ZM20.0718 13.5354L19.5128 14.0354L19.5141 14.0369L20.0718 13.5354ZM16.3311 4.70418L16.4996 5.435L16.5171 5.43096L16.5344 5.42609L16.3311 4.70418ZM14.9726 4.53479L14.5977 5.18442L14.6136 5.19355L14.6298 5.20189L14.9726 4.53479ZM19.0407 9.63282L18.4817 9.13282L18.4664 9.14992L18.4522 9.16794L19.0407 9.63282ZM20.8084 7.37549L21.5543 7.45385V7.45385L20.8084 7.37549ZM20.0718 8.48012L19.5141 7.97864L19.5128 7.98011L20.0718 8.48012ZM17.5513 4.36048L17.7546 5.08239L17.7561 5.08199L17.5513 4.36048ZM13.8475 3.37274L13.1363 3.61087L13.1415 3.62622L13.1473 3.64133L13.8475 3.37274ZM14.6357 4.34042L14.2312 4.97199L14.2458 4.98136L14.2609 4.99004L14.6357 4.34042ZM13.5136 2.37536L12.8019 2.61211L12.8024 2.61349L13.5136 2.37536ZM13.8476 18.6428L13.1473 18.3742L13.1415 18.3893L13.1364 18.4047L13.8476 18.6428ZM14.6356 17.6752L14.2607 17.0256L14.2456 17.0343L14.231 17.0437L14.6356 17.6752ZM12.9228 20.8191L13.3619 21.4271L13.3619 21.4271L12.9228 20.8191ZM13.5136 19.6403L12.8024 19.4021L12.8019 19.4035L13.5136 19.6403ZM2.30115 5.28479L1.65132 4.91035L1.65132 4.91035L2.30115 5.28479ZM1.80757 6.14139L2.4574 6.51584L2.4574 6.51584L1.80757 6.14139ZM1.80757 15.8741L2.4574 15.4997L1.80757 15.8741ZM2.30114 16.7307L1.6513 17.1052H1.6513L2.30114 16.7307ZM3.08433 12.3827L3.64334 12.8827L3.65864 12.8656L3.67287 12.8476L3.08433 12.3827ZM5.79394 17.3113L5.6254 16.5805L5.60789 16.5845L5.59059 16.5894L5.79394 17.3113ZM7.15267 17.4808L7.52756 16.8312L7.51174 16.8221L7.49549 16.8137L7.15267 17.4808ZM3.17867 17.8316L3.46123 17.1369L3.46122 17.1369L3.17867 17.8316ZM4.57377 17.655L4.37042 16.9331L4.36901 16.9335L4.57377 17.655ZM2.05326 13.5354L2.61096 14.0369L2.61227 14.0354L2.05326 13.5354ZM5.79398 4.70418L5.59065 5.42609L5.60794 5.43096L5.62545 5.435L5.79398 4.70418ZM7.15249 4.53479L7.49524 5.20189L7.51149 5.19355L7.52731 5.18442L7.15249 4.53479ZM3.0843 9.63282L3.67284 9.16794L3.65861 9.14992L3.64331 9.13282L3.0843 9.63282ZM1.31666 7.37549L0.570762 7.45385L0.570762 7.45385L1.31666 7.37549ZM2.05326 8.48012L2.61227 7.98011L2.61095 7.97864L2.05326 8.48012ZM4.57375 4.36048L4.369 5.082L4.37041 5.08239L4.57375 4.36048ZM8.27753 3.37274L8.97779 3.64133L8.98358 3.62622L8.98872 3.61087L8.27753 3.37274ZM7.48937 4.34042L7.86419 4.99004L7.87924 4.98136L7.89387 4.97199L7.48937 4.34042ZM8.61149 2.37536L9.32268 2.61349L9.32314 2.61211L8.61149 2.37536ZM8.2775 18.6428L8.98869 18.4047L8.98355 18.3893L8.97776 18.3742L8.2775 18.6428ZM7.4895 17.6752L7.89406 17.0437L7.87944 17.0343L7.86439 17.0256L7.4895 17.6752ZM9.20223 20.8191L8.76313 21.4271L8.76313 21.4271L9.20223 20.8191ZM8.61149 19.6403L9.32314 19.4035L9.32268 19.4021L8.61149 19.6403ZM19.1741 5.65924L19.6676 6.51584L20.9673 5.76695L20.4737 4.91035L19.1741 5.65924ZM19.6676 15.4997L19.1741 16.3563L20.4737 17.1052L20.9673 16.2486L19.6676 15.4997ZM19.6293 11.9178C19.4997 11.7538 19.3598 11.3704 19.3598 11.0077H17.8598C17.8598 11.6452 18.0777 12.3735 18.4522 12.8476L19.6293 11.9178ZM16.4997 16.5805C15.8683 16.4349 15.2059 16.5175 14.6296 16.8137L15.3152 18.1479C15.5765 18.0136 15.8766 17.9762 16.1626 18.0421L16.4997 16.5805ZM19.1741 16.3563C18.9783 16.696 18.8634 16.8929 18.7634 17.0269C18.7181 17.0875 18.6896 17.1158 18.6751 17.1284C18.6684 17.1341 18.665 17.1363 18.6644 17.1366C18.6641 17.1368 18.6642 17.1368 18.6638 17.1369L19.2289 18.5264C19.5611 18.3913 19.7872 18.1628 19.9652 17.9245C20.1311 17.7023 20.2962 17.4133 20.4737 17.1052L19.1741 16.3563ZM17.3465 18.3765C17.6881 18.4735 18.0077 18.5655 18.2815 18.6089C18.5753 18.6556 18.8966 18.6615 19.2289 18.5264L18.6638 17.1369C18.6634 17.1371 18.6636 17.137 18.6632 17.1371C18.6627 17.1372 18.6588 17.1381 18.6501 17.1386C18.6311 17.1397 18.5913 17.1393 18.5167 17.1275C18.352 17.1013 18.1328 17.0404 17.756 16.9335L17.3465 18.3765ZM20.9673 16.2486C21.1336 15.96 21.2909 15.6893 21.3951 15.4486C21.5071 15.1901 21.5896 14.8983 21.5543 14.5617L20.0625 14.7184C20.0626 14.719 20.0626 14.7191 20.0625 14.7199C20.0625 14.7208 20.0622 14.7249 20.0605 14.7333C20.0568 14.7513 20.0467 14.7877 20.0186 14.8526C19.9564 14.9963 19.8513 15.181 19.6676 15.4997L20.9673 16.2486ZM19.5141 14.0369C19.7599 14.3103 19.9011 14.469 19.9918 14.5965C20.0327 14.6541 20.0501 14.6876 20.0575 14.7044C20.0609 14.7122 20.062 14.7161 20.0622 14.717C20.0624 14.7177 20.0624 14.7179 20.0625 14.7184L21.5543 14.5617C21.5189 14.2251 21.3775 13.9568 21.2142 13.7272C21.0622 13.5135 20.8521 13.2815 20.6295 13.0339L19.5141 14.0369ZM16.1625 3.97336C15.8766 4.0393 15.5766 4.00192 15.3153 3.86769L14.6298 5.20189C15.2061 5.49797 15.8683 5.58057 16.4996 5.435L16.1625 3.97336ZM18.4522 9.16794C18.0778 9.64194 17.8598 10.3703 17.8598 11.0077H19.3598C19.3598 10.6453 19.4997 10.2618 19.6293 10.0977L18.4522 9.16794ZM19.6676 6.51584C19.8513 6.8345 19.9564 7.01927 20.0186 7.16298C20.0467 7.22784 20.0568 7.26424 20.0605 7.28228C20.0622 7.29063 20.0625 7.29473 20.0625 7.29565C20.0626 7.29642 20.0626 7.29657 20.0625 7.29713L21.5543 7.45385C21.5896 7.11727 21.5071 6.82543 21.3951 6.56693C21.2909 6.3262 21.1336 6.05554 20.9673 5.76695L19.6676 6.51584ZM20.6295 8.9816C20.8521 8.73404 21.0622 8.50208 21.2142 8.28832C21.3775 8.05875 21.5189 7.79045 21.5543 7.45385L20.0625 7.29713C20.0624 7.29768 20.0624 7.29783 20.0622 7.29855C20.062 7.29943 20.0609 7.30336 20.0575 7.31115C20.0501 7.32798 20.0327 7.36144 19.9918 7.41899C19.9011 7.54651 19.7599 7.70526 19.5141 7.97864L20.6295 8.9816ZM20.4737 4.91035C20.2962 4.60222 20.1311 4.31326 19.9651 4.09104C19.7872 3.85276 19.5611 3.62426 19.2289 3.48915L18.6638 4.87862C18.6642 4.87878 18.6641 4.87871 18.6644 4.87894C18.665 4.87926 18.6684 4.88141 18.6751 4.88718C18.6896 4.89973 18.7181 4.928 18.7633 4.98863C18.8634 5.12262 18.9783 5.31954 19.1741 5.65924L20.4737 4.91035ZM17.7561 5.08199C18.1328 4.97509 18.352 4.91419 18.5167 4.88803C18.5912 4.8762 18.6311 4.8758 18.6501 4.87695C18.6588 4.87748 18.6627 4.87831 18.6632 4.87843C18.6636 4.87851 18.6634 4.87846 18.6638 4.87862L19.2289 3.48915C18.8966 3.35399 18.5753 3.35994 18.2815 3.40658C18.0077 3.45005 17.6882 3.54203 17.3466 3.63897L17.7561 5.08199ZM13.1473 3.64133C13.3574 4.1892 13.7371 4.65557 14.2312 4.97199L15.0402 3.70885C14.8161 3.5653 14.6434 3.35347 14.5478 3.10415L13.1473 3.64133ZM11.6199 1.75781C11.9844 1.75781 12.1947 1.75895 12.3485 1.77655C12.4179 1.78448 12.4538 1.79378 12.4708 1.79942C12.4787 1.80202 12.4822 1.80375 12.4829 1.80409C12.4834 1.80436 12.4834 1.80436 12.4837 1.80459L13.3619 0.588547C13.0892 0.39159 12.7969 0.318061 12.519 0.286267C12.2603 0.256675 11.9498 0.257812 11.6199 0.257812V1.75781ZM14.2252 2.1386C14.1209 1.82497 14.0238 1.5297 13.9141 1.2934C13.7963 1.0397 13.6345 0.785415 13.3619 0.588547L12.4837 1.80459C12.484 1.80483 12.4841 1.80484 12.4845 1.80531C12.4851 1.80589 12.4879 1.80874 12.493 1.81549C12.5038 1.83006 12.5241 1.8615 12.5536 1.92508C12.619 2.06598 12.6867 2.26573 12.8019 2.61211L14.2252 2.1386ZM14.5478 18.9114C14.6434 18.6621 14.816 18.4503 15.0401 18.3067L14.231 17.0437C13.737 17.3601 13.3574 17.8264 13.1473 18.3742L14.5478 18.9114ZM11.6199 21.7578C11.9498 21.7578 12.2603 21.7589 12.519 21.7294C12.7969 21.6976 13.0892 21.624 13.3619 21.4271L12.4837 20.211C12.4834 20.2113 12.4834 20.2113 12.4829 20.2115C12.4822 20.2119 12.4787 20.2136 12.4708 20.2162C12.4538 20.2218 12.4179 20.2311 12.3485 20.2391C12.1947 20.2567 11.9844 20.2578 11.6199 20.2578V21.7578ZM12.8019 19.4035C12.6867 19.7499 12.619 19.9496 12.5536 20.0905C12.5241 20.1541 12.5038 20.1856 12.493 20.2001C12.4879 20.2069 12.4851 20.2097 12.4845 20.2103C12.4841 20.2108 12.484 20.2108 12.4837 20.211L13.3619 21.4271C13.6345 21.2302 13.7963 20.9759 13.9141 20.7222C14.0238 20.4859 14.1209 20.1907 14.2252 19.877L12.8019 19.4035ZM12.8024 2.61349L13.1363 3.61087L14.5587 3.13461L14.2248 2.13723L12.8024 2.61349ZM15.3474 3.88517L15.0105 3.6908L14.2609 4.99004L14.5977 5.18442L15.3474 3.88517ZM16.5344 5.42609L17.7546 5.08239L17.348 3.63857L16.1277 3.98227L16.5344 5.42609ZM19.5128 7.98011L18.4817 9.13282L19.5998 10.1328L20.6308 8.98013L19.5128 7.98011ZM18.4817 12.8827L19.5128 14.0354L20.6308 13.0354L19.5997 11.8827L18.4817 12.8827ZM16.1278 18.0332L17.3479 18.3769L17.7546 16.9331L16.5345 16.5894L16.1278 18.0332ZM15.0104 18.3248L15.3473 18.1304L14.5975 16.8312L14.2607 17.0256L15.0104 18.3248ZM13.1364 18.4047L12.8024 19.4021L14.2248 19.8784L14.5587 18.8809L13.1364 18.4047ZM1.65132 4.91035L1.15773 5.76695L2.4574 6.51584L2.95099 5.65924L1.65132 4.91035ZM1.15773 16.2486L1.6513 17.1052L2.95098 16.3563L2.4574 15.4997L1.15773 16.2486ZM3.67287 12.8476C4.04735 12.3735 4.26521 11.6452 4.26521 11.0077H2.76521C2.76521 11.3704 2.62537 11.7538 2.49578 11.9178L3.67287 12.8476ZM5.96248 18.0421C6.24847 17.9762 6.54856 18.0136 6.80984 18.1479L7.49549 16.8137C6.91917 16.5175 6.25678 16.4349 5.6254 16.5805L5.96248 18.0421ZM1.6513 17.1052C1.82885 17.4133 1.99392 17.7023 2.15989 17.9245C2.33786 18.1628 2.56391 18.3913 2.89612 18.5264L3.46122 17.1369C3.46084 17.1368 3.46097 17.1368 3.4606 17.1366C3.46009 17.1363 3.45667 17.1341 3.44998 17.1284C3.43543 17.1158 3.40699 17.0875 3.3617 17.0269C3.26162 16.8929 3.14672 16.696 2.95098 16.3563L1.6513 17.1052ZM4.36901 16.9335C3.99227 17.0404 3.77308 17.1013 3.60831 17.1275C3.5338 17.1393 3.49392 17.1397 3.47494 17.1386C3.46623 17.1381 3.46235 17.1372 3.46182 17.1371C3.46145 17.137 3.46161 17.1371 3.46123 17.1369L2.89611 18.5264C3.22843 18.6615 3.54979 18.6556 3.84355 18.6089C4.11735 18.5655 4.43692 18.4735 4.77853 18.3765L4.36901 16.9335ZM2.4574 15.4997C2.27379 15.181 2.16864 14.9963 2.10641 14.8526C2.07832 14.7877 2.06826 14.7513 2.06456 14.7333C2.06285 14.7249 2.06258 14.7208 2.06253 14.7199C2.06248 14.7191 2.0625 14.719 2.06255 14.7184L0.570764 14.5617C0.535405 14.8983 0.617983 15.1901 0.72992 15.4486C0.83416 15.6893 0.99144 15.96 1.15773 16.2486L2.4574 15.4997ZM1.49557 13.0339C1.27297 13.2815 1.06285 13.5135 0.910835 13.7272C0.74757 13.9568 0.606127 14.2251 0.570764 14.5617L2.06255 14.7184C2.06261 14.7179 2.06263 14.7177 2.06283 14.717C2.06306 14.7161 2.06418 14.7122 2.06758 14.7044C2.07492 14.6876 2.09231 14.6541 2.13323 14.5965C2.22392 14.469 2.36513 14.3103 2.61096 14.0369L1.49557 13.0339ZM5.62545 5.435C6.25672 5.58057 6.91899 5.49797 7.49524 5.20189L6.80974 3.86769C6.54849 4.00192 6.24846 4.0393 5.96252 3.97336L5.62545 5.435ZM2.49576 10.0977C2.62534 10.2618 2.76521 10.6453 2.76521 11.0077H4.26521C4.26521 10.3703 4.04726 9.64194 3.67284 9.16794L2.49576 10.0977ZM1.15773 5.76695C0.991436 6.05554 0.834157 6.3262 0.729917 6.56693C0.61798 6.82543 0.535405 7.11727 0.570762 7.45385L2.06255 7.29713C2.06249 7.29657 2.06248 7.29642 2.06252 7.29565C2.06258 7.29473 2.06285 7.29063 2.06456 7.28228C2.06826 7.26424 2.07832 7.22784 2.10641 7.16298C2.16863 7.01927 2.27378 6.8345 2.4574 6.51584L1.15773 5.76695ZM2.61095 7.97864C2.36513 7.70526 2.22392 7.54651 2.13323 7.41899C2.0923 7.36144 2.07492 7.32798 2.06757 7.31115C2.06417 7.30336 2.06306 7.29943 2.06283 7.29855C2.06263 7.29783 2.06261 7.29768 2.06255 7.29713L0.570762 7.45385C0.606125 7.79045 0.747567 8.05875 0.910831 8.28832C1.06285 8.50208 1.27296 8.73404 1.49557 8.9816L2.61095 7.97864ZM2.95099 5.65924C3.14673 5.31954 3.26163 5.12262 3.36171 4.98863C3.407 4.928 3.43543 4.89973 3.44998 4.88718C3.45667 4.88141 3.46009 4.87926 3.4606 4.87894C3.46097 4.87871 3.46085 4.87878 3.46123 4.87862L2.89611 3.48915C2.56392 3.62426 2.33787 3.85276 2.15991 4.09104C1.99394 4.31326 1.82887 4.60222 1.65132 4.91035L2.95099 5.65924ZM4.77849 3.63897C4.43689 3.54203 4.11732 3.45005 3.84353 3.40658C3.54977 3.35994 3.22841 3.35399 2.89611 3.48915L3.46123 4.87862C3.46162 4.87846 3.46146 4.87851 3.46182 4.87843C3.46236 4.87831 3.46623 4.87748 3.47495 4.87695C3.49392 4.8758 3.5338 4.8762 3.60832 4.88803C3.77308 4.91419 3.99226 4.97509 4.369 5.08199L4.77849 3.63897ZM7.57727 3.10415C7.48165 3.35347 7.30899 3.5653 7.08487 3.70885L7.89387 4.97199C8.38791 4.65557 8.76765 4.1892 8.97779 3.64133L7.57727 3.10415ZM10.5051 0.257812C10.1753 0.257812 9.86476 0.256675 9.60607 0.286267C9.32814 0.318061 9.03585 0.39159 8.76313 0.588547L9.64132 1.80459C9.64165 1.80436 9.64164 1.80436 9.64217 1.80409C9.64284 1.80375 9.64634 1.80202 9.65421 1.79942C9.67123 1.79378 9.70719 1.78448 9.77655 1.77655C9.93039 1.75895 10.1406 1.75781 10.5051 1.75781V0.257812ZM9.32314 2.61211C9.43837 2.26573 9.50602 2.06598 9.57144 1.92508C9.60096 1.8615 9.62124 1.83006 9.63209 1.81549C9.63711 1.80874 9.63992 1.80589 9.6405 1.80531C9.64097 1.80484 9.641 1.80483 9.64132 1.80459L8.76313 0.588547C8.49052 0.785415 8.32872 1.0397 8.21093 1.2934C8.10121 1.5297 8.00418 1.82497 7.89984 2.1386L9.32314 2.61211ZM8.97776 18.3742C8.76766 17.8264 8.388 17.3601 7.89406 17.0437L7.08493 18.3067C7.30901 18.4503 7.48163 18.6621 7.57724 18.9114L8.97776 18.3742ZM10.5051 20.2578C10.1406 20.2578 9.93039 20.2567 9.77655 20.2391C9.70719 20.2311 9.67123 20.2218 9.65421 20.2162C9.64634 20.2136 9.64284 20.2119 9.64217 20.2115C9.64163 20.2113 9.64165 20.2113 9.64132 20.211L8.76313 21.4271C9.03586 21.624 9.32814 21.6976 9.60607 21.7294C9.86476 21.7589 10.1753 21.7578 10.5051 21.7578V20.2578ZM7.89984 19.877C8.00418 20.1907 8.10121 20.4859 8.21093 20.7222C8.32872 20.9759 8.49052 21.2302 8.76313 21.4271L9.64132 20.211C9.641 20.2108 9.64097 20.2108 9.6405 20.2103C9.63992 20.2097 9.63711 20.2069 9.63209 20.2001C9.62124 20.1856 9.60096 20.1541 9.57144 20.0905C9.50602 19.9496 9.43837 19.7499 9.32314 19.4035L7.89984 19.877ZM7.90029 2.13723L7.56634 3.13461L8.98872 3.61087L9.32268 2.61349L7.90029 2.13723ZM7.52731 5.18442L7.86419 4.99004L7.11455 3.6908L6.77767 3.88517L7.52731 5.18442ZM5.99732 3.98227L4.77708 3.63857L4.37041 5.08239L5.59065 5.42609L5.99732 3.98227ZM1.49425 8.98013L2.52529 10.1328L3.64331 9.13282L2.61227 7.98011L1.49425 8.98013ZM2.52532 11.8827L1.49426 13.0354L2.61227 14.0354L3.64334 12.8827L2.52532 11.8827ZM5.59059 16.5894L4.37042 16.9331L4.77712 18.3769L5.99729 18.0332L5.59059 16.5894ZM7.86439 17.0256L7.52756 16.8312L6.77778 18.1304L7.11461 18.3248L7.86439 17.0256ZM7.56631 18.8809L7.90029 19.8784L9.32268 19.4021L8.98869 18.4047L7.56631 18.8809ZM11.6199 20.2578H10.5051V21.7578H11.6199V20.2578ZM10.5051 1.75781H11.6199V0.257812H10.5051V1.75781ZM13.7695 11C13.7695 12.5188 12.5383 13.75 11.0195 13.75V15.25C13.3667 15.25 15.2695 13.3472 15.2695 11H13.7695ZM11.0195 13.75C9.50075 13.75 8.26953 12.5188 8.26953 11H6.76953C6.76953 13.3472 8.67232 15.25 11.0195 15.25V13.75ZM8.26953 11C8.26953 9.48122 9.50075 8.25 11.0195 8.25V6.75C8.67232 6.75 6.76953 8.65279 6.76953 11H8.26953ZM11.0195 8.25C12.5383 8.25 13.7695 9.48122 13.7695 11H15.2695C15.2695 8.65279 13.3667 6.75 11.0195 6.75V8.25Z" fill="black"/>
</g>
</svg>
