<svg width="22" height="22" viewBox="0 0 22 22" fill="none" xmlns="http://www.w3.org/2000/svg">
<g id="Group">
<path id="Vector" d="M2.78413 10.4107C3.01095 10.0641 2.91385 9.59925 2.56726 9.37244C2.22066 9.14562 1.75582 9.24272 1.529 9.58931L2.78413 10.4107ZM12.4107 20.471C12.7573 20.2442 12.8544 19.7793 12.6276 19.4327C12.4007 19.0862 11.9359 18.9891 11.5893 19.2159L12.4107 20.471ZM13.7349 5C13.7349 4.58579 13.3991 4.25 12.9849 4.25C12.5707 4.25 12.2349 4.58579 12.2349 5H13.7349ZM12.2349 13C12.2349 13.4142 12.5707 13.75 12.9849 13.75C13.3991 13.75 13.7349 13.4142 13.7349 13H12.2349ZM14.069 7.36959C14.1504 7.77573 14.5456 8.03899 14.9517 7.9576C15.3579 7.87621 15.6211 7.481 15.5397 7.07486L14.069 7.36959ZM11.7327 10.6178C11.6444 10.2131 11.2447 9.95668 10.84 10.045C10.4353 10.1334 10.1789 10.5331 10.2673 10.9378L11.7327 10.6178ZM20.25 9C20.25 13.0041 17.0041 16.25 13 16.25V17.75C17.8325 17.75 21.75 13.8325 21.75 9H20.25ZM13 16.25C8.99594 16.25 5.75 13.0041 5.75 9H4.25C4.25 13.8325 8.16751 17.75 13 17.75V16.25ZM5.75 9C5.75 4.99594 8.99594 1.75 13 1.75V0.25C8.16751 0.25 4.25 4.16751 4.25 9H5.75ZM13 1.75C17.0041 1.75 20.25 4.99594 20.25 9H21.75C21.75 4.16751 17.8325 0.25 13 0.25V1.75ZM8.11116 20.25C4.59799 20.25 1.75 17.402 1.75 13.8888H0.25C0.25 18.2304 3.76956 21.75 8.11116 21.75V20.25ZM1.75 13.8888C1.75 12.6038 2.13024 11.4099 2.78413 10.4107L1.529 9.58931C0.720214 10.8252 0.25 12.3033 0.25 13.8888H1.75ZM11.5893 19.2159C10.5901 19.8698 9.39618 20.25 8.11116 20.25V21.75C9.69674 21.75 11.1748 21.2798 12.4107 20.471L11.5893 19.2159ZM12.9849 8.13495C12.3788 8.13495 12.1228 8.01911 12.0251 7.94128C11.9661 7.89417 11.8878 7.80275 11.8878 7.50223H10.3878C10.3878 8.09264 10.5613 8.69258 11.09 9.1141C11.5801 9.50489 12.2477 9.63495 12.9849 9.63495V8.13495ZM11.8878 7.50223C11.8878 7.11771 12.2803 6.63906 12.9849 6.63906V5.13906C11.6492 5.13906 10.3878 6.1049 10.3878 7.50223H11.8878ZM14.25 10.4981C14.25 10.8489 14.1282 11.0168 13.9752 11.1255C13.7842 11.2613 13.4549 11.3613 12.9849 11.3613V12.8613C13.6278 12.8613 14.306 12.7308 14.8444 12.3481C15.4207 11.9383 15.75 11.2996 15.75 10.4981H14.25ZM12.9849 9.63495C13.5987 9.63495 13.8988 9.74571 14.0379 9.85312C14.1337 9.92708 14.25 10.0729 14.25 10.4981H15.75C15.75 9.77102 15.5304 9.1103 14.9545 8.66575C14.422 8.25463 13.7146 8.13495 12.9849 8.13495V9.63495ZM13.7349 5.88906V5H12.2349V5.88906H13.7349ZM12.2349 12.1113V13H13.7349V12.1113H12.2349ZM12.9849 6.63906C13.6033 6.63906 13.9994 7.0226 14.069 7.36959L15.5397 7.07486C15.3057 5.90692 14.1881 5.13906 12.9849 5.13906V6.63906ZM12.9849 11.3613C12.2343 11.3613 11.8019 10.9344 11.7327 10.6178L10.2673 10.9378C10.529 12.1364 11.748 12.8613 12.9849 12.8613V11.3613Z" fill="black"/>
</g>
</svg>
