<svg width="26" height="26" viewBox="0 0 26 26" fill="none" xmlns="http://www.w3.org/2000/svg">
<g id="Group">
<path id="Vector" d="M11.7245 2.37891C16.0185 2.37891 19.563 5.58357 20.0993 9.73085L22.4743 13.4665C22.6305 13.7124 22.5988 14.0787 22.2368 14.2349L20.1689 15.1195V18.2122C20.1689 19.3786 19.2242 20.3234 18.0578 20.3234H15.9478L15.9467 23.49H6.4467V19.5908C6.4467 18.3452 5.98647 17.1662 5.13358 16.1022C3.97353 14.6561 3.28003 12.8205 3.28003 10.8234C3.28003 6.15991 7.06103 2.37891 11.7245 2.37891ZM11.7245 4.49002C8.22636 4.49002 5.39114 7.32524 5.39114 10.8234C5.39114 12.2853 5.88514 13.666 6.78025 14.7817C7.93503 16.2215 8.55781 17.8607 8.55781 19.5908V21.3789H13.8356L13.8377 18.2122H18.0578V13.7282L19.6939 13.0274L18.0652 10.4676L18.005 10.0011C17.5997 6.86607 14.9165 4.49002 11.7245 4.49002ZM11.165 8.46207L11.7245 9.02152L12.2839 8.46207C13.0059 7.74007 14.1755 7.74007 14.8964 8.46207C15.6184 9.18302 15.6184 10.3526 14.8964 11.0735L11.7245 14.2465L8.55253 11.0735C7.83053 10.3526 7.83053 9.18302 8.55253 8.46207C9.27347 7.74007 10.443 7.74007 11.165 8.46207Z" fill="black"/>
</g>
</svg>
