<svg width="44" height="14" viewBox="0 0 44 14" fill="none" xmlns="http://www.w3.org/2000/svg">
<g id="Visa Inc. svg" clip-path="url(#clip0_1870_3459)">
<path id="path3789" d="M28.6679 0C25.5478 0 22.7465 1.59765 22.7465 4.52941C22.7465 7.90588 27.695 8.13647 27.695 9.81647C27.695 10.5247 26.8563 11.1671 25.4472 11.1671C23.4342 11.1671 21.9245 10.2776 21.9245 10.2776L21.2871 13.2424C21.2871 13.2424 23.0149 14 25.3298 14C28.7518 14 31.4358 12.3365 31.4358 9.33882C31.4358 5.78118 26.4705 5.55059 26.4705 3.98588C26.4705 3.42588 27.1582 2.81647 28.5673 2.81647C30.1609 2.81647 31.4693 3.45882 31.4693 3.45882L32.1067 0.592941C32.09 0.592941 30.6641 0 28.6679 0ZM0.0838734 0.214118L0 0.642353C0 0.642353 1.30843 0.872941 2.49943 1.35059C4.02592 1.89412 4.12657 2.20706 4.39497 3.17882L7.19634 13.7694H10.9539L16.7076 0.214118H12.9668L9.25963 9.43765L7.7499 1.61412C7.61571 0.724706 6.91117 0.214118 6.03889 0.214118H0.0838734ZM18.2173 0.214118L15.2817 13.7694H18.8547L21.7735 0.214118H18.2173ZM38.1121 0.214118C37.2566 0.214118 36.8037 0.658824 36.4682 1.44941L31.2345 13.7694H34.9752L35.6965 11.7106H40.2592L40.6954 13.7694H44L41.1315 0.214118H38.1121ZM38.5986 3.88706L39.7057 8.97647H36.7366L38.5986 3.88706Z" fill="white" fill-opacity="0.6"/>
</g>
<defs>
<clipPath id="clip0_1870_3459">
<rect width="44" height="14" fill="white"/>
</clipPath>
</defs>
</svg>
